<svg xmlns="http://www.w3.org/2000/svg" width="253" height="138" fill="none"><g fill="#949494" opacity=".05"><path d="M195.034 80.98c-.086-8.986-4.681-17.202-12.291-21.978-7.611-4.776-17.007-5.34-25.135-1.51l-19.588 9.23a16.5 16.5 0 0 0-7.561 7.18 16.492 16.492 0 0 0-1.792 10.276 16.501 16.501 0 0 0 4.691 9.317 16.49 16.49 0 0 0 9.321 4.684l.239.034a32.648 32.648 0 0 1 21.969 13.903 16.536 16.536 0 0 0 4.896 4.737 16.744 16.744 0 0 0 3.373 1.619 16.499 16.499 0 0 0 10.43.173 16.495 16.495 0 0 0 8.476-6.08 16.504 16.504 0 0 0 3.18-9.934l-.208-21.651ZM150.388 52.934c3.654.717 7.38-.252 10.491-2.729 2.962-2.356 5.017-5.825 5.788-9.767.768-3.942.17-7.928-1.685-11.227-1.95-3.465-5.035-5.766-8.686-6.478-7.341-1.438-14.641 4.168-16.275 12.499-1.293 6.635 1.395 13.023 6.252 16.072a12.058 12.058 0 0 0 4.115 1.63ZM177.184 52.89c7.393 4.639 17.709 1.56 22.995-6.862 5.288-8.425 3.574-19.054-3.819-23.694-7.393-4.64-17.708-1.56-22.996 6.866-5.286 8.423-3.572 19.05 3.82 23.69ZM197.985 71.174h.001a12.9 12.9 0 0 0 3.102 2.725c5.392 3.384 13.109 2.757 18.899-2.016 3.333-2.747 5.561-6.465 6.272-10.47.746-4.19-.238-8.19-2.77-11.261-2.532-3.072-6.271-4.8-10.528-4.868-4.066-.065-8.141 1.413-11.473 4.161-7.03 5.796-8.601 15.544-3.503 21.73ZM227.34 87.111l-.001-.003c-2.735-6.966-11.384-10.119-19.284-7.027-7.896 3.097-12.103 11.283-9.378 18.247.994 2.541 2.775 4.575 5.02 5.984 3.914 2.456 9.238 3.013 14.265 1.048 7.896-3.097 12.103-11.283 9.378-18.249Z"/></g><path fill="#6B9777" d="M74.672 77.984v37.969H56.953v17.719H18.984v-17.719H1.266V77.984h17.718V60.266h37.97v17.718h17.718Z"/><path fill="#85BC94" d="M72.14 77.984v37.969H54.423v17.719H18.984v-17.719H1.266V77.984h17.718V60.266h35.438v17.718H72.14Z"/><path fill="#744630" d="M20.25 109.625h-1.266a4.866 4.866 0 0 1-4.718-3.683l-1.61-6.442-.838.838a8.372 8.372 0 0 0-2.368 7.102 11.505 11.505 0 0 0 4.486 7.576c.812.608 1.8.937 2.815.937h3.499v-6.328Z"/><path fill="#F3AF3E" d="m53.156 131.141-1.265 2.531H18.984v-18.716c0-2.692.434-5.368 1.285-7.922l.69-2.068a24.37 24.37 0 0 1 5.891-9.535l.094-.093a25.086 25.086 0 0 0 5.333-7.87l1.352-3.156.543-1.265H30.53a5.069 5.069 0 0 1-4.91-3.835l-.624-2.493-.163-.652a2.534 2.534 0 0 1 2.456-3.145h4.352a10.814 10.814 0 0 1 4.697-5.857l.553-.33a9.871 9.871 0 0 1 9.49-.366l.055.029a9.868 9.868 0 0 1 5.455 8.826v54.651l1.265 1.266Z"/><path fill="#CD761F" d="M25.945 133.672a5.702 5.702 0 0 1-5.695-5.695v-.95a5.72 5.72 0 0 1 2.278-4.556 6.992 6.992 0 0 0 2.785-5.569v-.949a1.266 1.266 0 0 1 2.53 0v.949a9.54 9.54 0 0 1-3.796 7.594 3.185 3.185 0 0 0-1.266 2.531v.95a3.163 3.163 0 1 0 6.328 0v-.633a3.802 3.802 0 0 1 3.797-3.797 1.263 1.263 0 0 1 1.266 1.265 1.265 1.265 0 0 1-1.266 1.266 1.27 1.27 0 0 0-1.265 1.266v.633a5.701 5.701 0 0 1-5.696 5.695Z"/><path fill="#E08122" d="m53.156 131.141-1.265 2.531H38.353a7.977 7.977 0 0 1-7.978-7.978 15.3 15.3 0 0 1 .59-4.212l.188-.658a16.154 16.154 0 0 1 7.226-9.419 3.436 3.436 0 0 0 1.302-1.407l2.085-4.17H37.48a3.294 3.294 0 0 1-2.34-.969 3.31 3.31 0 0 1-.968-2.339V99.5h3.797l.315-.945a5.475 5.475 0 0 1 3.868-3.581l2.145-.537v-3.796l3.697 2.773a7.173 7.173 0 0 1 2.128 2.55 16.749 16.749 0 0 1 1.769 7.489v26.422l1.265 1.266Z"/><path fill="#CD761F" d="m43.927 105.458-1.266 1.266c-.238.237-.56.37-.895.37h-.633l.633-1.266H37.48a3.296 3.296 0 0 1-2.525-1.171c.153-.063.317-.095.483-.095h5.804l.894-.895a1.269 1.269 0 0 1 1.79 0 1.268 1.268 0 0 1 0 1.791ZM46.828 117.219a1.266 1.266 0 0 0-1.266 1.265v9.156a4.014 4.014 0 0 0-1.518-.296h-1.179l.173-.26a5.53 5.53 0 0 0-4.604-8.6h-.465a1.268 1.268 0 0 0-.895 2.161c.237.237.56.371.895.371h.465a2.994 2.994 0 0 1 2.647 1.584 3 3 0 0 1-.15 3.081l-1.485 2.226a1.267 1.267 0 0 0 1.054 1.968h3.544a1.522 1.522 0 0 1 1.519 1.519v2.278h2.53v-15.188a1.268 1.268 0 0 0-1.265-1.265Z"/><path fill="#744630" d="M51.89 75.453v3.591a3.797 3.797 0 1 1-7.593 0v-6.122h5.062l2.532 2.531Z"/><path fill="#D18D28" d="m40.13 81.411-2.532 2.531c-.237.237-.56.37-.895.37h-3.074l.543-1.265H30.53a5.04 5.04 0 0 1-3.212-1.152c.165-.075.344-.114.526-.114h8.335l2.16-2.16a1.266 1.266 0 1 1 1.79 1.79ZM29.11 72.922v2.531a1.266 1.266 0 0 1-1.266 1.266h-2.848l-.163-.652a2.531 2.531 0 0 1 2.456-3.145h1.82ZM33.035 96.374a1.266 1.266 0 0 1-1.011-2.025 23.351 23.351 0 0 0 3.478-6.64 1.266 1.266 0 0 1 2.402.8 25.884 25.884 0 0 1-3.856 7.358 1.264 1.264 0 0 1-1.013.507ZM24.047 114.687a1.267 1.267 0 0 1-1.266-1.265c.01-4.38 1.43-8.641 4.05-12.15a1.266 1.266 0 1 1 2.025 1.519 17.826 17.826 0 0 0-3.544 10.631 1.266 1.266 0 0 1-1.265 1.265ZM37.969 75.453a1.266 1.266 0 1 0 0-2.531 1.266 1.266 0 0 0 0 2.531Z"/><path fill="#CD761F" d="M43.031 100.766a1.266 1.266 0 1 0 0-2.532 1.266 1.266 0 0 0 0 2.532Z"/><path fill="#000" d="M74.672 76.719H58.219V60.266A1.266 1.266 0 0 0 56.953 59H18.984a1.266 1.266 0 0 0-1.265 1.266v16.453H1.266A1.266 1.266 0 0 0 0 77.984v37.969a1.265 1.265 0 0 0 1.266 1.266h16.453v16.453a1.266 1.266 0 0 0 1.265 1.266h37.97a1.268 1.268 0 0 0 1.265-1.266v-16.453h16.453a1.267 1.267 0 0 0 1.266-1.266V77.984a1.266 1.266 0 0 0-1.266-1.265Zm-56.95 37.969h-.972c-.74 0-1.461-.241-2.054-.685a10.246 10.246 0 0 1-3.992-6.743 7.145 7.145 0 0 1 1.291-5.186l1.044 4.175a6.119 6.119 0 0 0 5.007 4.569 26.309 26.309 0 0 0-.325 3.87Zm2.528 17.718v-4.429a5.667 5.667 0 0 0 2.116 4.429H20.25Zm8.86-5.062v.633a3.163 3.163 0 1 1-6.329 0v-.95a3.18 3.18 0 0 1 1.266-2.531 9.484 9.484 0 0 0 3.797-7.594v-.949a1.267 1.267 0 0 0-2.532 0v.949a6.962 6.962 0 0 1-2.784 5.569 5.72 5.72 0 0 0-2.278 4.556v-12.071c0-1.702.183-3.399.545-5.062l.005-.024c.18-.823.403-1.637.67-2.436l.69-2.069a23.22 23.22 0 0 1 5.585-9.04l.094-.093a26.286 26.286 0 0 0 5.6-8.265l1.567-3.654h1.697a1.266 1.266 0 0 0 .895-.371l2.531-2.531a1.266 1.266 0 1 0-1.79-1.79l-2.16 2.16H30.53a3.79 3.79 0 0 1-3.683-2.876l-.23-.92h1.227a2.534 2.534 0 0 0 2.531-2.532v-1.266h1.266a1.265 1.265 0 0 0 1.2-.865 9.55 9.55 0 0 1 4.145-5.17l.557-.332a8.608 8.608 0 0 1 8.258-.325l.068.034a8.567 8.567 0 0 1 4.045 4.258 1.266 1.266 0 0 0-.555-.13h-5.062a1.266 1.266 0 0 0-1.266 1.265v6.122a5.052 5.052 0 0 0 7.594 4.381v10.921a8.525 8.525 0 0 0-1.871-1.946l-3.698-2.772a1.266 1.266 0 0 0-2.025 1.013v2.808l-1.186.297a6.71 6.71 0 0 0-4.762 4.41l-.027.078h-2.884a1.266 1.266 0 0 0-1.266 1.266v3.022a4.578 4.578 0 0 0 4.573 4.572h2.239l-1.17 2.338a2.16 2.16 0 0 1-.82.887 17.37 17.37 0 0 0-7.792 10.157l-.188.658a16.596 16.596 0 0 0-.639 4.56c0 .335.02.671.056 1.004a3.814 3.814 0 0 0-.056.646Zm-3.086-51.89v-.023c.001-.053.006-.106.013-.159l.008-.047c.01-.06.025-.12.044-.177l.008-.02c.019-.052.041-.103.067-.153l.024-.043a1.257 1.257 0 0 1 1.1-.644h.556v1.265h-1.82Zm24.601.523v3.067a2.531 2.531 0 1 1-5.063 0v-4.856h3.273l1.79 1.79ZM29.52 132.406a5.742 5.742 0 0 0 1.26-1.423c.36.515.771.992 1.228 1.423H29.52Zm21.588 0h-3.014v-13.922a1.268 1.268 0 0 0-1.266-1.265 1.266 1.266 0 0 0-1.266 1.265v9.156a4.033 4.033 0 0 0-1.518-.296h-1.179l.173-.259a5.53 5.53 0 0 0-1.76-7.814 5.528 5.528 0 0 0-2.843-.787h-.466a1.268 1.268 0 0 0-.895 2.161c.237.237.56.371.895.371h.465a3.001 3.001 0 0 1 2.497 4.665l-1.484 2.226a1.266 1.266 0 0 0 1.053 1.968h3.544a1.523 1.523 0 0 1 1.519 1.519v1.012h-7.21a6.721 6.721 0 0 1-6.712-6.712c0-1.307.182-2.607.54-3.864l.189-.659a14.85 14.85 0 0 1 6.66-8.682 4.676 4.676 0 0 0 1.783-1.925l1.994-3.987 1.12-1.12a1.266 1.266 0 0 0-1.79-1.79l-.895.895h-3.763a2.04 2.04 0 0 1-2.041-2.04v-1.756h2.53a1.268 1.268 0 0 0 1.201-.866l.315-.944a4.194 4.194 0 0 1 2.975-2.754l2.145-.537a1.266 1.266 0 0 0 .959-1.228v-1.265l1.672 1.254a5.992 5.992 0 0 1 1.756 2.104 15.558 15.558 0 0 1 1.634 6.924v26.421a1.263 1.263 0 0 0 .37.895l.621.621-.508 1.015Zm22.298-17.718H56.953a1.266 1.266 0 0 0-1.266 1.265v16.453h-1.749l.35-.699a1.267 1.267 0 0 0-.237-1.461l-.895-.895V75.224a11.069 11.069 0 0 0-6.142-9.951l-.069-.035a11.134 11.134 0 0 0-10.703.41l-.555.333a12.08 12.08 0 0 0-4.922 5.675h-3.477a3.798 3.798 0 0 0-3.683 4.718l.786 3.145a6.318 6.318 0 0 0 6.139 4.793h1.722l-1.139 2.658a23.754 23.754 0 0 1-5.064 7.472l-.094.094a25.77 25.77 0 0 0-6.197 10.03l-.69 2.068a25.945 25.945 0 0 0-.502 1.699 3.592 3.592 0 0 1-3.072-2.698l-1.61-6.442a1.265 1.265 0 0 0-2.123-.588l-.838.838a9.68 9.68 0 0 0-2.725 8.174 12.754 12.754 0 0 0 3.463 7.071h-9.13V79.25h16.453a1.265 1.265 0 0 0 1.266-1.266V61.531h35.438v16.453a1.265 1.265 0 0 0 1.265 1.266h16.453v35.438Z"/><path fill="#000" d="M32.277 96.12a1.264 1.264 0 0 0 1.771-.253 25.881 25.881 0 0 0 3.856-7.357 1.266 1.266 0 0 0-2.402-.8 23.355 23.355 0 0 1-3.478 6.639 1.266 1.266 0 0 0 .253 1.772ZM28.603 101.019a1.265 1.265 0 0 0-1.772.253 20.376 20.376 0 0 0-4.05 12.15 1.267 1.267 0 0 0 2.532 0 17.826 17.826 0 0 1 3.543-10.631 1.267 1.267 0 0 0-.253-1.772ZM37.969 75.453a1.266 1.266 0 1 0 0-2.531 1.266 1.266 0 0 0 0 2.531ZM43.031 100.766a1.266 1.266 0 1 0 0-2.532 1.266 1.266 0 0 0 0 2.532Z"/></svg>