<svg xmlns="http://www.w3.org/2000/svg" width="253" height="138" fill="none"><g fill="#949494" opacity=".05"><path d="M195.034 80.98c-.086-8.986-4.681-17.202-12.291-21.978-7.611-4.776-17.007-5.34-25.135-1.51l-19.588 9.23a16.5 16.5 0 0 0-7.561 7.18 16.492 16.492 0 0 0-1.792 10.276 16.501 16.501 0 0 0 4.691 9.317 16.49 16.49 0 0 0 9.321 4.684l.239.034a32.648 32.648 0 0 1 21.969 13.903 16.536 16.536 0 0 0 4.896 4.737 16.744 16.744 0 0 0 3.373 1.619 16.499 16.499 0 0 0 10.43.173 16.495 16.495 0 0 0 8.476-6.08 16.504 16.504 0 0 0 3.18-9.934l-.208-21.651ZM150.388 52.934c3.654.717 7.38-.252 10.491-2.729 2.962-2.356 5.017-5.825 5.788-9.767.768-3.942.17-7.928-1.685-11.227-1.95-3.465-5.035-5.766-8.686-6.478-7.341-1.438-14.641 4.168-16.275 12.499-1.293 6.635 1.395 13.023 6.252 16.072a12.058 12.058 0 0 0 4.115 1.63ZM177.184 52.89c7.393 4.639 17.709 1.56 22.995-6.862 5.288-8.425 3.574-19.054-3.819-23.694-7.393-4.64-17.708-1.56-22.996 6.866-5.286 8.423-3.572 19.05 3.82 23.69ZM197.985 71.174h.001a12.9 12.9 0 0 0 3.102 2.725c5.392 3.384 13.109 2.757 18.899-2.016 3.333-2.747 5.561-6.465 6.272-10.47.746-4.19-.238-8.19-2.77-11.261-2.532-3.072-6.271-4.8-10.528-4.868-4.066-.065-8.141 1.413-11.473 4.161-7.03 5.796-8.601 15.544-3.503 21.73ZM227.34 87.111l-.001-.003c-2.735-6.966-11.384-10.119-19.284-7.027-7.896 3.097-12.103 11.283-9.378 18.247.994 2.541 2.775 4.575 5.02 5.984 3.914 2.456 9.238 3.013 14.265 1.048 7.896-3.097 12.103-11.283 9.378-18.249Z"/></g><path fill="#716680" d="M31.22 120.283H8.78l-2.365-4.528h27.17l-2.365 4.528Z"/><path fill="#635870" d="m29.056 115.755-2.365 4.528h4.529l2.365-4.528h-4.529Z"/><path fill="#FF573D" d="M15.472 120.283h9.056v4.528h-9.056v-4.528Z"/><path fill="#E64028" d="M20 120.283h4.528v4.528H20v-4.528Z"/><path fill="#CEE8F2" d="M6.415 76.51h27.17v39.245H6.415V76.509Z"/><path fill="#9AD5ED" d="M29.057 76.51h4.528v39.245h-4.528V76.509Z"/><path fill="#716680" d="M36.603 76.51H3.396a2.264 2.264 0 1 1 0-4.529h33.207a2.264 2.264 0 1 1 0 4.528Z"/><path fill="#635870" d="M36.604 71.981h-4.528a2.264 2.264 0 1 1 0 4.528h4.528a2.264 2.264 0 1 0 0-4.528Z"/><path fill="#E8E1D5" d="M27.849 64.66H12.151a2.264 2.264 0 1 1 0-4.528h15.698a2.264 2.264 0 1 1 0 4.528Z"/><path fill="#D6CFC4" d="M27.85 60.132h-4.53a2.264 2.264 0 1 1 0 4.528h4.53a2.264 2.264 0 1 0 0-4.528ZM17.736 64.66h4.528v7.321h-4.528v-7.32Z"/><path fill="#78C0DE" d="M6.415 98.683v17.072h27.17v-14.478c-9.048-.519-12.938-6.654-19.925-6.654-2.997 0-5.685 1.56-7.245 4.06Z"/><path fill="#89CEEA" d="M33.585 98.683v17.072H6.415v-14.477c9.048-.521 12.938-6.655 19.925-6.655.945 0 1.86.155 2.716.445a8.586 8.586 0 0 1 4.529 3.615Z"/><path fill="#78C0DE" d="M33.585 98.683v17.072h-4.528V95.068a8.585 8.585 0 0 1 4.528 3.615Z"/><path fill="#B0693C" d="M28.604 90.245a3.019 3.019 0 1 1-6.038 0 3.019 3.019 0 0 1 6.038 0ZM17.434 90.245a3.019 3.019 0 1 1-6.037 0 3.019 3.019 0 0 1 6.037 0Z"/><path fill="#FFD659" d="M26.943 95.528c0-3.084-3.108-5.585-6.943-5.585-3.835 0-6.943 2.501-6.943 5.585 0 3.085 3.108 5.585 6.943 5.585 3.835 0 6.943-2.5 6.943-5.585Z"/><path fill="#000" d="M36.604 70.85h-6.906a1.132 1.132 0 1 0 0 2.263h6.906a1.133 1.133 0 0 1 0 2.264H3.396a1.133 1.133 0 0 1 0-2.264h21.472a1.132 1.132 0 1 0 0-2.264h-1.472v-5.056h4.453a3.4 3.4 0 0 0 3.396-3.397A3.4 3.4 0 0 0 27.85 59H12.151a3.4 3.4 0 0 0-3.396 3.396 3.4 3.4 0 0 0 3.396 3.397h4.453v5.056H3.396A3.4 3.4 0 0 0 0 74.245a3.4 3.4 0 0 0 3.396 3.396h1.887v.654a1.132 1.132 0 1 0 2.264 0v-.654h24.906v18.055a9.64 9.64 0 0 0-4.47-2.062 4.137 4.137 0 0 0 1.753-3.389 4.156 4.156 0 0 0-4.151-4.15 4.158 4.158 0 0 0-3.944 2.856 9.66 9.66 0 0 0-3.282 0 4.158 4.158 0 0 0-3.944-2.857 4.156 4.156 0 0 0-4.15 4.151c0 1.385.677 2.63 1.752 3.389a9.645 9.645 0 0 0-4.47 2.061V83.151a1.132 1.132 0 0 0-2.264 0v32.604c0 .03.002.06.005.091v.019a1.122 1.122 0 0 0 .06.263l.01.031c.015.037.03.072.048.107.002.004.003.009.006.013l.006.013.002.004 2.357 4.511a1.13 1.13 0 0 0 1.002.608h5.56v3.396c0 .625.508 1.132 1.133 1.132h3.396v9.208a1.132 1.132 0 0 0 2.264 0v-9.208h3.396c.626 0 1.132-.507 1.132-1.132v-3.396h5.56c.422 0 .808-.234 1.004-.608l2.356-4.512.001-.002.007-.014.007-.015a.957.957 0 0 0 .046-.104l.012-.033a.982.982 0 0 0 .03-.103c.003-.009.006-.018.007-.026.01-.044.017-.088.022-.132v-.02c.003-.031.005-.061.005-.091v-3.648a1.132 1.132 0 1 0-2.264 0v2.516H7.547v-12.306c2.86-.308 5.129-1.135 6.888-1.929 1.45 1.149 3.41 1.857 5.565 1.857 2.156 0 4.116-.707 5.565-1.857 1.76.794 4.029 1.621 6.888 1.929v4.966a1.132 1.132 0 0 0 2.264 0V77.641h1.887A3.4 3.4 0 0 0 40 74.245a3.4 3.4 0 0 0-3.396-3.396Zm-25.585-8.454c0-.624.508-1.132 1.132-1.132h15.698a1.133 1.133 0 0 1 0 2.264H12.151a1.133 1.133 0 0 1-1.132-1.132Zm7.849 3.397h2.264v5.056h-2.264v-5.056Zm6.717 22.566a1.889 1.889 0 0 1 1.108 3.415c-.734-.902-1.724-1.648-2.882-2.165a1.888 1.888 0 0 1 1.774-1.25Zm-11.17 0c.817 0 1.512.522 1.774 1.25-1.158.517-2.148 1.263-2.882 2.165a1.889 1.889 0 0 1 1.108-3.415Zm8.981 35.32h-6.792v-2.264h6.792v2.264Zm8.32-6.792-1.182 2.264H9.466l-1.182-2.264h23.432ZM7.547 99.024a7.468 7.468 0 0 1 4.396-3.064c.074.953.386 1.851.889 2.656-1.432.598-3.182 1.17-5.285 1.425v-1.017Zm7.925-.71a1.088 1.088 0 0 0-.132-.128c-.723-.743-1.151-1.662-1.151-2.658 0-.61.161-1.193.453-1.723.009-.014.016-.03.024-.043.593-1.046 1.693-1.885 3.062-2.332A7.341 7.341 0 0 1 20 91.076a7.338 7.338 0 0 1 2.27.353c1.37.447 2.471 1.287 3.064 2.333.008.014.015.03.024.043.292.53.453 1.112.453 1.723 0 .996-.428 1.915-1.151 2.658-.047.039-.091.082-.131.128-1.066 1.016-2.7 1.667-4.529 1.667-1.829 0-3.462-.651-4.528-1.666Zm11.696.302a5.836 5.836 0 0 0 .89-2.656 7.47 7.47 0 0 1 4.395 3.064v1.017c-2.103-.256-3.853-.827-5.285-1.425Z"/><path fill="#000" d="M19.17 93.453a1.132 1.132 0 1 1-2.265 0 1.132 1.132 0 0 1 2.265 0ZM23.094 93.453a1.132 1.132 0 1 1-2.264 0 1.132 1.132 0 0 1 2.264 0Z"/></svg>