<svg xmlns="http://www.w3.org/2000/svg" width="253" height="138" fill="none"><g fill="#949494" opacity=".05"><path d="M195.034 80.98c-.086-8.986-4.681-17.202-12.291-21.978-7.611-4.776-17.007-5.34-25.135-1.51l-19.588 9.23a16.5 16.5 0 0 0-7.561 7.18 16.492 16.492 0 0 0-1.792 10.276 16.501 16.501 0 0 0 4.691 9.317 16.49 16.49 0 0 0 9.321 4.684l.239.034a32.648 32.648 0 0 1 21.969 13.903 16.536 16.536 0 0 0 4.896 4.737 16.744 16.744 0 0 0 3.373 1.619 16.499 16.499 0 0 0 10.43.173 16.495 16.495 0 0 0 8.476-6.08 16.504 16.504 0 0 0 3.18-9.934l-.208-21.651ZM150.388 52.934c3.654.717 7.38-.252 10.491-2.729 2.962-2.356 5.017-5.825 5.788-9.767.768-3.942.17-7.928-1.685-11.227-1.95-3.465-5.035-5.766-8.686-6.478-7.341-1.438-14.641 4.168-16.275 12.499-1.293 6.635 1.395 13.023 6.252 16.072a12.058 12.058 0 0 0 4.115 1.63ZM177.184 52.89c7.393 4.639 17.709 1.56 22.995-6.862 5.288-8.425 3.574-19.054-3.819-23.694-7.393-4.64-17.708-1.56-22.996 6.866-5.286 8.423-3.572 19.05 3.82 23.69ZM197.985 71.174h.001a12.9 12.9 0 0 0 3.102 2.725c5.392 3.384 13.109 2.757 18.899-2.016 3.333-2.747 5.561-6.465 6.272-10.47.746-4.19-.238-8.19-2.77-11.261-2.532-3.072-6.271-4.8-10.528-4.868-4.066-.065-8.141 1.413-11.473 4.161-7.03 5.796-8.601 15.544-3.503 21.73ZM227.34 87.111l-.001-.003c-2.735-6.966-11.384-10.119-19.284-7.027-7.896 3.097-12.103 11.283-9.378 18.247.994 2.541 2.775 4.575 5.02 5.984 3.914 2.456 9.238 3.013 14.265 1.048 7.896-3.097 12.103-11.283 9.378-18.249Z"/></g><path fill="#FF573D" d="M66.849 132.391H10.15a9.024 9.024 0 0 1-9.023-9.024v-42.11a9.024 9.024 0 0 1 9.023-9.023H66.85a9.024 9.024 0 0 1 9.023 9.024v42.109a9.024 9.024 0 0 1-9.023 9.024Z"/><path fill="#E64028" d="M66.849 72.234h-4.512a9.024 9.024 0 0 1 9.023 9.024v42.109a9.024 9.024 0 0 1-9.023 9.024h4.512a9.024 9.024 0 0 0 9.023-9.024v-42.11a9.024 9.024 0 0 0-9.023-9.023Z"/><path fill="#FFD659" d="M52.787 109.633c0 7.891-6.396 14.288-14.287 14.288-7.89 0-14.287-6.397-14.287-14.288 0-7.89 6.396-14.287 14.287-14.287 7.89 0 14.287 6.397 14.287 14.287Z"/><path fill="#FFBD54" d="M38.5 95.346c-.768 0-1.52.062-2.256.178 6.819 1.082 12.031 6.986 12.031 14.109s-5.212 13.028-12.03 14.11a14.46 14.46 0 0 0 2.255.178c7.89 0 14.287-6.397 14.287-14.288 0-7.89-6.396-14.287-14.287-14.287Z"/><path fill="#FFD659" d="M28.725 93.29a4.511 4.511 0 1 1-9.023 0 4.511 4.511 0 0 1 9.023 0ZM57.299 93.29a4.511 4.511 0 1 1-9.023 0 4.511 4.511 0 0 1 9.023 0ZM43.012 87.875a4.511 4.511 0 1 1-9.023 0 4.511 4.511 0 0 1 9.023 0Z"/><path fill="#FFBD54" d="M24.213 88.777a4.49 4.49 0 0 0-2.256.605 4.509 4.509 0 0 1 0 7.814 4.511 4.511 0 1 0 2.256-8.418ZM52.787 88.777a4.49 4.49 0 0 0-2.256.605 4.509 4.509 0 0 1 0 7.814 4.511 4.511 0 1 0 2.256-8.418ZM38.5 83.363a4.49 4.49 0 0 0-2.256.605 4.508 4.508 0 0 1 0 7.814 4.511 4.511 0 1 0 2.256-8.418Z"/><path fill="#89CEEA" d="M46.02 109.531c0 .623-.253 1.187-.662 1.595a2.243 2.243 0 0 1-1.594.661h-3.008v3.008a2.257 2.257 0 0 1-4.512 0v-3.008h-3.008a2.256 2.256 0 0 1 0-4.512h3.008v-3.007a2.256 2.256 0 0 1 4.512 0v3.007h3.008a2.257 2.257 0 0 1 2.255 2.256Z"/><path fill="#E8E1D5" d="M56.697 69.184v8.239a2.256 2.256 0 1 1-4.512 0v-8.239a4.545 4.545 0 0 0-4.544-4.544H29.359a4.545 4.545 0 0 0-4.545 4.544v8.239a2.256 2.256 0 1 1-4.511 0v-8.239a9.056 9.056 0 0 1 9.056-9.056h18.282a9.056 9.056 0 0 1 9.056 9.056Z"/><path fill="#D6CFC4" d="M47.641 60.128H43.13c4.923 0 8.926 3.93 9.05 8.823.005.077.007.155.007.233v8.239a2.256 2.256 0 1 0 4.511 0v-8.239a9.056 9.056 0 0 0-9.056-9.056Z"/><path fill="#E8E1D5" d="M14.137 130.36h9.023v4.512h-9.023v-4.512ZM53.84 130.36h9.023v4.512H53.84v-4.512Z"/><path fill="#D6CFC4" d="M18.648 130.36h4.512v4.512h-4.512v-4.512ZM58.352 130.36h4.511v4.512h-4.511v-4.512Z"/><path fill="#000" d="M66.849 71.106h-3.083a1.128 1.128 0 0 0 0 2.256h3.083c4.353 0 7.895 3.542 7.895 7.896v42.109c0 4.354-3.542 7.896-7.895 7.896H63.99v-.903c0-.622-.505-1.128-1.128-1.128H53.84c-.623 0-1.128.506-1.128 1.128v.903H24.288v-.903c0-.622-.505-1.128-1.128-1.128h-9.023c-.623 0-1.128.506-1.128 1.128v.903H10.15c-4.353 0-7.895-3.542-7.895-7.896v-35.53a1.128 1.128 0 0 0-2.256 0v35.53c0 5.598 4.554 10.152 10.151 10.152h2.858v1.353c0 .623.505 1.128 1.128 1.128h9.023c.623 0 1.128-.505 1.128-1.128v-1.353h28.424v1.353c0 .623.505 1.128 1.128 1.128h9.023c.623 0 1.128-.505 1.128-1.128v-1.353h2.858c5.597 0 10.151-4.554 10.151-10.152v-42.11c0-5.597-4.554-10.15-10.151-10.15Zm-44.817 62.638h-6.767v-2.256h6.767v2.256Zm39.703 0h-6.767v-2.256h6.767v2.256Z"/><path fill="#000" d="M1.128 84.153c.623 0 1.128-.505 1.128-1.128v-1.767c0-4.354 3.542-7.896 7.895-7.896h9.024v4.06a3.388 3.388 0 0 0 3.384 3.385 3.388 3.388 0 0 0 3.383-3.384v-4.06h25.116v4.06a3.388 3.388 0 0 0 3.383 3.384 3.388 3.388 0 0 0 3.384-3.384v-4.06h1.128a1.128 1.128 0 0 0 0-2.257h-1.128v-1.922C57.825 63.57 53.256 59 47.641 59H29.359c-5.616 0-10.184 4.569-10.184 10.184v1.922H10.15C4.554 71.106 0 75.661 0 81.258v1.767c0 .623.505 1.128 1.128 1.128Zm24.814-13.047v-1.922a3.42 3.42 0 0 1 3.417-3.416h18.282a3.42 3.42 0 0 1 3.417 3.416v1.922H25.942Zm-4.511-1.922c0-4.372 3.556-7.928 7.928-7.928h18.282c4.372 0 7.928 3.556 7.928 7.928v8.239a1.129 1.129 0 0 1-2.256 0v-8.239a5.68 5.68 0 0 0-5.672-5.672H29.359a5.68 5.68 0 0 0-5.673 5.672v8.239a1.129 1.129 0 0 1-2.255 0v-8.239ZM28.685 120.077a1.128 1.128 0 0 0 .174 1.585 15.453 15.453 0 0 0 9.641 3.386c8.5 0 15.415-6.915 15.415-15.415S47 94.218 38.5 94.218s-15.415 6.915-15.415 15.415c0 2.906.813 5.736 2.351 8.186a1.128 1.128 0 1 0 1.91-1.199 13.12 13.12 0 0 1-2.005-6.987c0-7.256 5.903-13.159 13.159-13.159 7.256 0 13.16 5.903 13.16 13.159 0 7.256-5.904 13.16-13.16 13.16-3.028 0-5.873-1-8.23-2.89a1.128 1.128 0 0 0-1.585.174Z"/><path fill="#000" d="M29.852 93.29c0-3.111-2.53-5.64-5.64-5.64s-5.639 2.529-5.639 5.64c0 3.11 2.53 5.639 5.64 5.639s5.64-2.53 5.64-5.64Zm-5.64 3.383a3.388 3.388 0 0 1-3.383-3.384 3.388 3.388 0 0 1 3.384-3.384 3.388 3.388 0 0 1 3.384 3.384 3.388 3.388 0 0 1-3.384 3.384ZM58.427 93.29c0-3.111-2.53-5.64-5.64-5.64s-5.64 2.529-5.64 5.64c0 3.11 2.53 5.639 5.64 5.639s5.64-2.53 5.64-5.64Zm-5.64 3.383a3.388 3.388 0 0 1-3.384-3.384 3.388 3.388 0 0 1 3.384-3.384 3.388 3.388 0 0 1 3.384 3.384 3.388 3.388 0 0 1-3.384 3.384ZM44.14 87.875c0-3.11-2.53-5.64-5.64-5.64s-5.64 2.53-5.64 5.64 2.53 5.64 5.64 5.64 5.64-2.53 5.64-5.64Zm-9.024 0a3.388 3.388 0 0 1 3.384-3.384 3.388 3.388 0 0 1 3.384 3.384 3.388 3.388 0 0 1-3.384 3.384 3.388 3.388 0 0 1-3.384-3.384ZM40.893 101.877a3.359 3.359 0 0 0-2.393-.993 3.388 3.388 0 0 0-3.384 3.384v1.879h-1.88a3.388 3.388 0 0 0-3.383 3.384 3.388 3.388 0 0 0 3.383 3.384h1.88v1.88a3.388 3.388 0 0 0 3.384 3.384 3.388 3.388 0 0 0 3.384-3.384v-1.88h1.88c.904 0 1.754-.353 2.39-.99a3.36 3.36 0 0 0 .993-2.394 3.388 3.388 0 0 0-3.383-3.384h-1.88v-1.879c0-.905-.353-1.755-.99-2.391Zm2.87 6.526a1.13 1.13 0 0 1 1.129 1.128c0 .301-.117.584-.334.798-.211.213-.493.33-.794.33h-3.008c-.623 0-1.128.505-1.128 1.128v3.008a1.13 1.13 0 0 1-2.256 0v-3.008c0-.623-.505-1.128-1.128-1.128h-3.008a1.13 1.13 0 0 1 0-2.256h3.008c.623 0 1.128-.505 1.128-1.128v-3.007a1.128 1.128 0 0 1 2.256 0v3.007c0 .623.505 1.128 1.128 1.128h3.008ZM8.196 78.1a1.128 1.128 0 1 1-2.256-.001 1.128 1.128 0 0 1 2.256 0ZM70.458 78.1a1.128 1.128 0 1 1-2.256-.001 1.128 1.128 0 0 1 2.256 0ZM8.196 126.676a1.129 1.129 0 1 1-2.257-.001 1.129 1.129 0 0 1 2.257.001ZM70.458 126.676a1.129 1.129 0 1 1-2.257-.001 1.129 1.129 0 0 1 2.257.001Z"/></svg>