<svg xmlns="http://www.w3.org/2000/svg" width="253" height="138" fill="none"><g fill="#78C0DE" opacity=".05"><path d="M195.034 80.98c-.086-8.986-4.681-17.202-12.291-21.978-7.611-4.776-17.007-5.34-25.135-1.51l-19.588 9.23a16.5 16.5 0 0 0-7.561 7.18 16.492 16.492 0 0 0-1.792 10.276 16.501 16.501 0 0 0 4.691 9.317 16.49 16.49 0 0 0 9.321 4.684l.239.034a32.648 32.648 0 0 1 21.969 13.903 16.536 16.536 0 0 0 4.896 4.737 16.744 16.744 0 0 0 3.373 1.619 16.499 16.499 0 0 0 10.43.173 16.495 16.495 0 0 0 8.476-6.08 16.504 16.504 0 0 0 3.18-9.934l-.208-21.651ZM150.388 52.934c3.654.717 7.38-.252 10.491-2.729 2.962-2.356 5.017-5.825 5.788-9.767.768-3.942.17-7.928-1.685-11.227-1.95-3.465-5.035-5.766-8.686-6.478-7.341-1.438-14.641 4.168-16.275 12.499-1.293 6.635 1.395 13.023 6.252 16.072a12.058 12.058 0 0 0 4.115 1.63ZM177.184 52.89c7.393 4.639 17.709 1.56 22.995-6.862 5.288-8.425 3.574-19.054-3.819-23.694-7.393-4.64-17.708-1.56-22.996 6.866-5.286 8.423-3.572 19.05 3.82 23.69ZM197.985 71.174h.001a12.9 12.9 0 0 0 3.102 2.725c5.392 3.384 13.109 2.757 18.899-2.016 3.333-2.747 5.561-6.465 6.272-10.47.746-4.19-.238-8.19-2.77-11.261-2.532-3.072-6.271-4.8-10.528-4.868-4.066-.065-8.141 1.413-11.473 4.161-7.03 5.796-8.601 15.544-3.503 21.73ZM227.34 87.111l-.001-.003c-2.735-6.966-11.384-10.119-19.284-7.027-7.896 3.097-12.103 11.283-9.378 18.247.994 2.541 2.775 4.575 5.02 5.984 3.914 2.456 9.238 3.013 14.265 1.048 7.896-3.097 12.103-11.283 9.378-18.249Z"/></g><path fill="#716680" d="M39.612 64.713H26.206a2.285 2.285 0 1 1 0-4.57h13.406a2.285 2.285 0 1 1 0 4.57ZM27.577 110.645h10.664v4.57H27.577v-4.57Z"/><path fill="#D6CFC4" d="M26.815 64.713h12.188v6.322H26.815v-6.322Z"/><path fill="#C4BEB4" d="M34.433 64.713h4.57v6.322h-4.57v-6.322Z"/><path fill="#716680" d="M68.861 89.622v32.601H59.72V89.927a5.485 5.485 0 0 0-5.485-5.485h-9.138v-9.141h9.443c7.91 0 14.322 6.412 14.322 14.321Z"/><path fill="#635870" d="M54.539 75.3h-4.57c7.91 0 14.322 6.413 14.322 14.322v32.601h4.57v-32.6c0-7.91-6.413-14.322-14.322-14.322Z"/><path fill="#716680" d="M55.834 135.857H22.166a9.064 9.064 0 0 1-9.064-9.064h51.796a9.064 9.064 0 0 1-9.064 9.064Z"/><path fill="#635870" d="M60.328 126.793a9.064 9.064 0 0 1-9.064 9.064h4.57a9.064 9.064 0 0 0 9.064-9.064h-4.57Z"/><path fill="#E8E1D5" d="M42.05 110.645H23.769a3.047 3.047 0 0 1-3.047-3.047V74.082a3.047 3.047 0 0 1 3.047-3.047h18.28a3.047 3.047 0 0 1 3.048 3.047v33.516a3.047 3.047 0 0 1-3.047 3.047Z"/><path fill="#D6CFC4" d="M42.05 71.035h-4.572a3.047 3.047 0 0 1 3.047 3.047v33.516a3.047 3.047 0 0 1-3.047 3.047h4.572a3.047 3.047 0 0 0 3.047-3.047V74.082a3.047 3.047 0 0 0-3.047-3.047Z"/><path fill="#FFBD54" d="M51.19 79.8A6.094 6.094 0 1 1 39 79.8a6.094 6.094 0 0 1 12.189 0Z"/><path fill="#FF573D" d="M47.38 79.8a2.285 2.285 0 1 1-4.57 0 2.285 2.285 0 0 1 4.57 0Z"/><path fill="#E8E1D5" d="M74.572 126.793H3.428a2.285 2.285 0 1 1 0-4.57h71.144a2.285 2.285 0 1 1 0 4.57Z"/><path fill="#D6CFC4" d="M74.572 122.223h-4.57a2.285 2.285 0 1 1 0 4.57h4.57a2.285 2.285 0 1 0 0-4.57Z"/><path fill="#000" d="M45.096 83.228a3.432 3.432 0 0 0 3.427-3.428 3.432 3.432 0 0 0-3.427-3.427 3.432 3.432 0 0 0-3.428 3.427 3.431 3.431 0 0 0 3.428 3.428Zm0-4.57c.63 0 1.142.512 1.142 1.142 0 .63-.513 1.143-1.142 1.143a1.144 1.144 0 0 1 0-2.285Z"/><path fill="#000" d="M74.572 121.08h-4.568v-.584a1.142 1.142 0 0 0-2.285 0v.584H60.86V89.928a6.636 6.636 0 0 0-6.627-6.63h-2.807a7.186 7.186 0 0 0 .904-3.498c0-1.21-.3-2.353-.828-3.357h3.036c7.267 0 13.18 5.913 13.18 13.18v26.023a1.142 1.142 0 1 0 2.285 0V89.623c0-8.528-6.938-15.465-15.465-15.465h-4.92a7.205 7.205 0 0 0-3.643-1.539 4.194 4.194 0 0 0-3.926-2.726h-1.904v-4.08a3.433 3.433 0 0 0 2.894-3.385A3.432 3.432 0 0 0 39.612 59H26.206a3.432 3.432 0 0 0-3.428 3.428 3.433 3.433 0 0 0 2.895 3.386v4.079h-1.904c-2.31 0-4.19 1.879-4.19 4.189v4.406a1.143 1.143 0 0 0 2.285 0v-4.406c0-1.05.855-1.904 1.905-1.904h18.28a1.9 1.9 0 0 1 1.372.584c-3.185.757-5.562 3.624-5.562 7.038 0 3.602 2.645 6.597 6.095 7.146v20.652c0 1.05-.854 1.904-1.904 1.904H23.769a1.906 1.906 0 0 1-1.905-1.904V83.356a1.143 1.143 0 1 0-2.285 0v24.242c0 2.31 1.88 4.189 4.19 4.189h2.666v3.428c0 .631.511 1.142 1.142 1.142h10.664c.631 0 1.143-.511 1.143-1.142v-3.428h2.666c2.31 0 4.19-1.879 4.19-4.189V86.946a7.201 7.201 0 0 0 3.198-1.362h4.796a4.348 4.348 0 0 1 4.342 4.344v31.152H3.428A3.432 3.432 0 0 0 0 124.508a3.432 3.432 0 0 0 3.428 3.428h8.596c.57 5.092 4.9 9.064 10.142 9.064h33.668c5.242 0 9.572-3.972 10.142-9.064h8.596A3.432 3.432 0 0 0 78 124.508a3.432 3.432 0 0 0-3.428-3.428ZM25.064 62.428c0-.63.512-1.143 1.142-1.143h13.406a1.144 1.144 0 0 1 0 2.285H26.206c-.63 0-1.142-.512-1.142-1.142Zm2.894 7.465v-4.037h9.902v4.037h-9.902Zm9.14 44.179H28.72v-2.285h8.379v2.285ZM40.145 79.8c0-2.73 2.221-4.95 4.952-4.95 2.73 0 4.95 2.22 4.95 4.95a4.956 4.956 0 0 1-4.94 4.95h-.02a4.956 4.956 0 0 1-4.942-4.95Zm34.428 45.85H20.72a1.143 1.143 0 0 0 0 2.286h42.953c-.555 3.828-3.858 6.779-7.838 6.779H22.166c-3.98 0-7.283-2.951-7.838-6.779h1.54a1.143 1.143 0 0 0 0-2.286H3.429a1.143 1.143 0 0 1 0-2.285h71.144a1.143 1.143 0 0 1 0 2.285Z"/><path fill="#000" d="M24.683 107.369h16.453a1.142 1.142 0 1 0 0-2.285H24.683a1.142 1.142 0 1 0 0 2.285ZM24.683 103.104h16.453a1.143 1.143 0 0 0 0-2.286H24.683a1.143 1.143 0 0 0 0 2.286Z"/></svg>