<svg xmlns="http://www.w3.org/2000/svg" width="252" height="138" fill="none"><g fill="#78C0DE" opacity=".05"><path d="M194.034 80.98c-.086-8.986-4.681-17.202-12.291-21.978-7.611-4.776-17.007-5.34-25.135-1.51l-19.588 9.23a16.5 16.5 0 0 0-7.561 7.18 16.492 16.492 0 0 0-1.792 10.276 16.501 16.501 0 0 0 4.691 9.317 16.491 16.491 0 0 0 9.321 4.684l.239.034a32.648 32.648 0 0 1 21.969 13.903 16.536 16.536 0 0 0 4.896 4.737 16.744 16.744 0 0 0 3.373 1.619 16.499 16.499 0 0 0 10.43.173 16.495 16.495 0 0 0 8.476-6.08 16.504 16.504 0 0 0 3.18-9.934l-.208-21.651ZM149.388 52.934c3.654.717 7.38-.252 10.491-2.729 2.962-2.356 5.017-5.825 5.788-9.767.768-3.942.17-7.928-1.685-11.227-1.95-3.465-5.035-5.766-8.686-6.478-7.341-1.438-14.641 4.168-16.275 12.499-1.293 6.635 1.395 13.023 6.252 16.072a12.058 12.058 0 0 0 4.115 1.63ZM176.184 52.89c7.393 4.639 17.709 1.56 22.995-6.862 5.288-8.425 3.574-19.054-3.819-23.694-7.393-4.64-17.708-1.56-22.996 6.866-5.286 8.423-3.572 19.05 3.82 23.69ZM196.985 71.174h.001a12.9 12.9 0 0 0 3.102 2.725c5.392 3.384 13.109 2.757 18.899-2.016 3.333-2.747 5.561-6.465 6.272-10.47.746-4.19-.238-8.19-2.77-11.261-2.532-3.072-6.271-4.8-10.528-4.868-4.066-.065-8.141 1.413-11.473 4.161-7.03 5.796-8.601 15.544-3.503 21.73ZM226.34 87.111l-.001-.003c-2.735-6.966-11.384-10.119-19.284-7.027-7.896 3.097-12.103 11.283-9.378 18.247.994 2.541 2.775 4.575 5.02 5.984 3.914 2.456 9.238 3.013 14.265 1.048 7.896-3.097 12.103-11.283 9.378-18.249Z"/></g><path fill="#F9ADB1" d="M1.3 60.3h75.4v16.9H1.3V60.3Z"/><path fill="#E4E4E2" d="M70.85 70.7A5.85 5.85 0 0 0 65 76.55v.65a6.5 6.5 0 1 0-13 0l-11.907 1.191.207-.508-13.114-4.426A6.469 6.469 0 0 0 26 77.2a6.5 6.5 0 1 0-13 0v-.65a5.85 5.85 0 1 0-11.7 0c0 4.748.582 9.479 1.734 14.086L6.5 104.5l5.518-17.657c.65-2.083.982-4.252.982-6.435v.674a6.322 6.322 0 0 0 1.852 4.471l4.424 4.423a.318.318 0 0 0 .45 0l4.423-4.423A6.322 6.322 0 0 0 26 81.083c0 1.676.666 3.283 1.851 4.468l4.424 4.424a.318.318 0 0 0 .451 0l4.424-4.424A6.322 6.322 0 0 0 39 81.083c0 1.676.666 3.283 1.85 4.468l4.424 4.424a.317.317 0 0 0 .452 0l4.423-4.424a6.322 6.322 0 0 0 1.85-4.468 6.323 6.323 0 0 0 1.853 4.47l4.424 4.423a.318.318 0 0 0 .45 0l4.423-4.423a6.322 6.322 0 0 0 1.85-4.471v-.674c0 2.183.332 4.352.983 6.435L71.5 104.5l3.466-13.863A58.078 58.078 0 0 0 76.7 76.55a5.85 5.85 0 0 0-5.85-5.85Z"/><path fill="#EEA5A9" d="M50.347 68.1c-.239 0-.473-.066-.676-.19a7.575 7.575 0 0 0-3.948-1.11h-.446a7.527 7.527 0 0 0-3.139.68 1.3 1.3 0 0 1-1.076-2.366 10.11 10.11 0 0 1 4.215-.914h.446c1.87 0 3.705.516 5.302 1.49a1.3 1.3 0 0 1-.678 2.41Z"/><path fill="#C0F5F9" d="M57.2 92.8h2.6v2.6h-2.6v-2.6ZM57.2 98h2.6v5.2h-2.6V98Z"/><path fill="#FBB540" d="M39 77.2v1.3l-2.8.885a5.328 5.328 0 0 1-5.2-1.093 6.035 6.035 0 0 1-.184-.175l-2.704-2.704a3.218 3.218 0 0 1-.926-1.957A6.5 6.5 0 0 1 39 77.201Z"/><path fill="#DA922A" d="M33.8 77.2a1.3 1.3 0 1 0 0-2.6 1.3 1.3 0 0 0 0 2.6Z"/><path fill="#FBB540" d="M52 77.2h-2.307a2.974 2.974 0 0 0-2.475 1.325 3.813 3.813 0 0 1-4.591 1.427L39 78.5v-1.3a6.502 6.502 0 0 1 5.835-6.466c.054-.005.11-.012.164-.015a6.56 6.56 0 0 1 .304-.016l.197-.003a6.622 6.622 0 0 1 1.31.131 6.773 6.773 0 0 1 1.218.379A6.512 6.512 0 0 1 52 77.2Z"/><path fill="#DA922A" d="M44.2 77.2a1.3 1.3 0 1 0 0-2.6 1.3 1.3 0 0 0 0 2.6Z"/><path fill="#6CBAE5" d="M53.3 108.4a1.303 1.303 0 0 1-1.3-1.3V82.4a1.3 1.3 0 0 1 .637-1.118l3.224-1.91a.65.65 0 0 0-.611-.871H48.1a1.3 1.3 0 0 1 0-2.6h7.15a3.25 3.25 0 0 1 2.6 5.2c-.103.136-.23.25-.377.338L54.6 83.14V107.1a1.302 1.302 0 0 1-1.3 1.3Z"/><path fill="#428DC5" d="M53.3 107.1a3.898 3.898 0 0 1 3.9 3.9v24.7h-7.8V111a3.898 3.898 0 0 1 3.9-3.9Z"/><path fill="#3775A4" d="M53.3 118.8h3.9v2.6h-3.9v-2.6ZM53.3 124h3.9v2.6h-3.9V124ZM53.3 129.2h3.9v2.6h-3.9v-2.6Z"/><path fill="#4799CF" d="M49.4 114.9h7.8V111a3.898 3.898 0 0 0-6.658-2.757A3.898 3.898 0 0 0 49.4 111v3.9Z"/><path fill="#000" d="M57.2 92.8h2.6v2.6h-2.6v-2.6ZM57.2 98h2.6v5.2h-2.6V98Z"/><path fill="#000" d="M76.7 59H1.3A1.3 1.3 0 0 0 0 60.3v16.9c0 .04.002.078.006.116.06 4.598.652 9.174 1.767 13.636l3.466 13.863a1.297 1.297 0 0 0 1.223.985H6.5a1.3 1.3 0 0 0 1.24-.912L13.26 87.23c.118-.377.222-.758.32-1.14.114.13.23.258.353.38l4.424 4.424a1.62 1.62 0 0 0 2.288 0l4.424-4.423c.347-.347.66-.727.935-1.133.272.407.583.786.929 1.132l4.423 4.423a1.622 1.622 0 0 0 2.29 0l4.424-4.423A7.54 7.54 0 0 0 39 85.334c.273.408.585.789.932 1.136l4.423 4.423a1.622 1.622 0 0 0 2.29 0l4.424-4.423c.346-.346.657-.725.929-1.132l.003.003v20.624A5.207 5.207 0 0 0 48.1 111v24.7a1.3 1.3 0 0 0 1.3 1.3h7.8a1.3 1.3 0 0 0 1.3-1.3V111a5.208 5.208 0 0 0-3.9-5.035V88.138l2.756 2.756a1.62 1.62 0 0 0 2.288 0l4.424-4.423c.123-.123.24-.251.353-.381.097.382.202.763.32 1.14l5.518 17.658a1.3 1.3 0 0 0 1.241.912h.038a1.303 1.303 0 0 0 1.224-.984l3.465-13.864a59.435 59.435 0 0 0 1.767-13.635 1.32 1.32 0 0 0 .006-.116V60.3a1.3 1.3 0 0 0-1.3-1.3Zm-1.3 2.6v9.439a7.14 7.14 0 0 0-10.553 1.635 7.79 7.79 0 0 0-12.844.216 7.9 7.9 0 0 0-.988-1.205 7.794 7.794 0 0 0-12.012 1.206 7.801 7.801 0 0 0-12.879-.184l-.014.02-.007.01-.105.155a7.79 7.79 0 0 0-12.845-.218A7.14 7.14 0 0 0 2.6 71.039V61.6h72.8ZM55.9 79.15c0 .075-.013.15-.039.221L53.3 80.89V78.5h1.95a.65.65 0 0 1 .65.65Zm-7.8-3.25a1.3 1.3 0 0 0-1.285 1.113c-.258.235-.486.5-.68.79a2.525 2.525 0 0 1-3.026.94L40.3 77.62V77.19a5.2 5.2 0 0 1 10.236-1.29H48.1Zm-10.4 1.647-1.89.597a4.027 4.027 0 0 1-4.075-.947l-3.188-3.188-.016-.166A5.2 5.2 0 0 1 37.7 77.2v.347Zm-26.923 8.907L6.64 99.697l-2.344-9.375A56.828 56.828 0 0 1 2.6 76.55a4.55 4.55 0 0 1 9.1 0v3.858c0 2.05-.31 4.09-.923 6.046Zm8.723 1.908-3.73-3.73a4.99 4.99 0 0 1-1.47-3.55V77.2a5.2 5.2 0 0 1 10.4 0v3.882a4.988 4.988 0 0 1-1.471 3.55l-3.729 3.73Zm16.73-3.73-3.73 3.73-3.73-3.73a5.054 5.054 0 0 1-1.47-3.55V77.2c0-.238.018-.475.05-.71l2.547 2.546a6.53 6.53 0 0 0 4.642 1.905c.696 0 1.388-.107 2.052-.317l1.109-.35v.808a5.054 5.054 0 0 1-1.47 3.55Zm14.47-3.55a5.054 5.054 0 0 1-1.47 3.55l-3.73 3.73-3.73-3.73a5.054 5.054 0 0 1-1.47-3.55v-.662l1.843.737c.6.24 1.24.363 1.884.363a5.14 5.14 0 0 0 4.272-2.274 1.672 1.672 0 0 1 1.394-.746H50.7v2.582Zm0 53.318v-18.2h5.2v2.6h-2.6v2.6h2.6v2.6h-2.6v2.6h2.6v2.6h-2.6v2.6h2.6v2.6h-5.2Zm5.2-23.4v2.6h-5.2V111a2.597 2.597 0 0 1 2.6-2.6 2.599 2.599 0 0 1 2.6 2.6Zm7.8-29.918a4.988 4.988 0 0 1-1.471 3.55l-3.729 3.73-3.73-3.73a5.213 5.213 0 0 1-.17-.178V83.14l2.873-1.702c.147-.087.275-.202.377-.339a3.248 3.248 0 0 0-2.467-5.194 1.287 1.287 0 0 0-.133-.006h-1.785A5.2 5.2 0 0 1 63.7 77.2v3.882Zm7.66 18.614-4.137-13.242a20.24 20.24 0 0 1-.923-6.046V76.55a4.55 4.55 0 0 1 9.1 0c0 4.642-.57 9.267-1.695 13.771l-2.344 9.375Z"/><path fill="#000" d="M42.138 67.48a7.527 7.527 0 0 1 3.139-.68h.446c1.393 0 2.759.384 3.948 1.11a1.3 1.3 0 0 0 1.354-2.22 10.175 10.175 0 0 0-5.302-1.49h-.446a10.11 10.11 0 0 0-4.215.914 1.3 1.3 0 0 0 1.076 2.367ZM33.8 77.2a1.3 1.3 0 1 0 0-2.6 1.3 1.3 0 0 0 0 2.6ZM44.2 77.2a1.3 1.3 0 1 0 0-2.6 1.3 1.3 0 0 0 0 2.6Z"/></svg>