<svg xmlns="http://www.w3.org/2000/svg" width="252" height="138" fill="none"><g fill="#78C0DE" opacity=".05"><path d="M194.034 80.98c-.086-8.986-4.681-17.202-12.291-21.978-7.611-4.776-17.007-5.34-25.135-1.51l-19.588 9.23a16.5 16.5 0 0 0-7.561 7.18 16.492 16.492 0 0 0-1.792 10.276 16.501 16.501 0 0 0 4.691 9.317 16.49 16.49 0 0 0 9.321 4.684l.239.034a32.648 32.648 0 0 1 21.969 13.903 16.536 16.536 0 0 0 4.896 4.737 16.744 16.744 0 0 0 3.373 1.619 16.499 16.499 0 0 0 10.43.173 16.495 16.495 0 0 0 8.476-6.08 16.504 16.504 0 0 0 3.18-9.934l-.208-21.651ZM149.388 52.934c3.654.717 7.38-.252 10.491-2.729 2.962-2.356 5.017-5.825 5.788-9.767.768-3.942.17-7.928-1.685-11.227-1.95-3.465-5.035-5.766-8.686-6.478-7.341-1.438-14.641 4.168-16.275 12.499-1.293 6.635 1.395 13.023 6.252 16.072a12.058 12.058 0 0 0 4.115 1.63ZM176.184 52.89c7.393 4.639 17.709 1.56 22.995-6.862 5.288-8.425 3.574-19.054-3.819-23.694-7.393-4.64-17.708-1.56-22.996 6.866-5.286 8.423-3.572 19.05 3.82 23.69ZM196.985 71.174h.001a12.9 12.9 0 0 0 3.102 2.725c5.392 3.384 13.109 2.757 18.899-2.016 3.333-2.747 5.561-6.465 6.272-10.47.746-4.19-.238-8.19-2.77-11.261-2.532-3.072-6.271-4.8-10.528-4.868-4.066-.065-8.141 1.413-11.473 4.161-7.03 5.796-8.601 15.544-3.503 21.73ZM226.34 87.111l-.001-.003c-2.735-6.966-11.384-10.119-19.284-7.027-7.896 3.097-12.103 11.283-9.378 18.247.994 2.541 2.775 4.575 5.02 5.984 3.914 2.456 9.238 3.013 14.265 1.048 7.896-3.097 12.103-11.283 9.378-18.249Z"/></g><path fill="#EBEBEB" d="M1.444 66.222h83.778v66.445a2.886 2.886 0 0 1-2.889 2.889h-78a2.889 2.889 0 0 1-2.889-2.889V66.222Z"/><path fill="#428DC5" d="M1.444 66.222h83.778v11.556H1.444V66.222Z"/><path fill="#8DC79D" d="M34.174 93.663A14.45 14.45 0 1 1 9.14 79.221a14.45 14.45 0 0 1 25.034 14.442Z"/><path fill="#AAE5C8" d="M32.919 92.939a13.001 13.001 0 1 1-22.524-12.994A13.001 13.001 0 0 1 32.92 92.939Z"/><path fill="#428DC5" d="M34.174 93.663a14.576 14.576 0 0 1-2.192 2.889h-7.43a4.338 4.338 0 0 1-4.333-4.333v-2.89h2.889v2.89a1.444 1.444 0 0 0 1.444 1.444h9.622Z"/><path fill="#DBDBDB" d="M20.222 115.333a4.333 4.333 0 1 0 0-8.666 4.333 4.333 0 0 0 0 8.666ZM20.222 129.778a4.333 4.333 0 1 0 0-8.667 4.333 4.333 0 0 0 0 8.667Z"/><path fill="#DC4D41" d="M20.222 112.444a1.438 1.438 0 0 1-1.021-.423l-2.89-2.889a1.442 1.442 0 0 1 1.022-2.465c.383 0 .75.152 1.022.423l1.974 1.974 6.213-4.97a1.448 1.448 0 0 1 2.03.225 1.447 1.447 0 0 1-.225 2.031l-7.222 5.778a1.438 1.438 0 0 1-.903.316Z"/><path fill="#DBDBDB" d="M33.222 106.667h2.89v2.889h-2.89v-2.889ZM39 106.667h15.889v2.889H39v-2.889ZM33.222 112.444h8.667v2.889h-8.667v-2.889ZM44.778 112.444h8.666v2.889h-8.666v-2.889ZM46.222 96.555a4.333 4.333 0 1 0 0-8.666 4.333 4.333 0 0 0 0 8.666Z"/><path fill="#DC4D41" d="M46.222 93.667a1.44 1.44 0 0 1-1.021-.423l-2.89-2.89a1.444 1.444 0 1 1 2.044-2.042l1.974 1.975 6.213-4.97a1.445 1.445 0 1 1 1.805 2.255l-7.222 5.778a1.44 1.44 0 0 1-.903.317Z"/><path fill="#DBDBDB" d="M59.222 87.889h2.89v2.889h-2.89v-2.89ZM65 87.889h13v2.889H65v-2.89ZM59.222 93.667h11.556v2.889H59.222v-2.89ZM73.666 93.667H78v2.889h-4.334v-2.89ZM33.222 121.111h2.89V124h-2.89v-2.889ZM39 121.111h15.889V124H39v-2.889ZM33.222 126.889h10.111v2.889h-10.11v-2.889ZM46.222 126.889H65v2.889H46.222v-2.889ZM37.556 63.333a2.889 2.889 0 0 0-5.778 0v5.778a2.889 2.889 0 1 0 5.778 0v-5.778ZM20.222 63.333a2.889 2.889 0 0 0-5.778 0v5.778a2.889 2.889 0 1 0 5.778 0v-5.778ZM54.889 63.333a2.889 2.889 0 0 0-5.778 0v5.778a2.889 2.889 0 1 0 5.778 0v-5.778ZM72.222 63.333a2.889 2.889 0 0 0-5.778 0v5.778a2.889 2.889 0 1 0 5.778 0v-5.778Z"/><path fill="#FBB540" d="M78.97 119.033a14.448 14.448 0 0 1-16.037 10.615 14.451 14.451 0 1 1 16.036-10.615Z"/><path fill="#DA922A" d="M78.97 119.033a14.472 14.472 0 0 1-13.582 10.745H65l-2.89-8.667h-3.408a2.885 2.885 0 0 1-2.833-2.322l-.98-4.9 4.333-1.444 2.889-4.334h8.667l8.191 10.922Z"/><path fill="#834B10" d="M75.111 113.889v5.778a2.89 2.89 0 0 1-5.778 0v-11.556h1.445l4.333 5.778ZM62.111 113.889h2.89v2.889h-2.89v-2.889Z"/><path fill="#4799CF" d="M21.664 90.775a5.785 5.785 0 0 1-5.778-5.778v-2.889a1.443 1.443 0 0 1 .799-1.292l2.889-1.444 1.292 2.584L18.776 83v1.996a2.889 2.889 0 0 0 5.777 0v-1.996l-2.09-1.045 1.291-2.584 2.89 1.444a1.445 1.445 0 0 1 .798 1.292v2.89a5.784 5.784 0 0 1-5.778 5.777Z"/><path fill="#000" d="M85.222 64.778H73.667v-1.445a4.334 4.334 0 0 0-8.667 0v1.445h-8.667v-1.445a4.333 4.333 0 0 0-8.666 0v1.445H39v-1.445a4.333 4.333 0 0 0-8.667 0v1.445h-8.666v-1.445a4.334 4.334 0 0 0-8.667 0v1.445H1.444A1.445 1.445 0 0 0 0 66.222v66.445A4.336 4.336 0 0 0 4.333 137h78a4.335 4.335 0 0 0 4.334-4.333V66.222a1.444 1.444 0 0 0-1.445-1.444ZM67.89 63.333a1.444 1.444 0 1 1 2.889 0v5.778a1.444 1.444 0 0 1-2.89 0v-5.778Zm-17.333 0a1.444 1.444 0 1 1 2.888 0v5.778a1.444 1.444 0 1 1-2.888 0v-5.778Zm-17.334 0a1.444 1.444 0 1 1 2.89 0v5.778a1.444 1.444 0 0 1-2.89 0v-5.778Zm1.182 20.52a12.914 12.914 0 0 1-1.902 9.767l-.03.044h-7.92a1.446 1.446 0 0 1-1.444-1.445v-1.627a5.788 5.788 0 0 0 4.334-5.595v-2.889a1.446 1.446 0 0 0-.799-1.292l-2.889-1.444-1.292 2.584L24.552 83v1.996a2.889 2.889 0 0 1-5.777 0v-1.996l2.09-1.045-1.292-2.584-2.889 1.444a1.445 1.445 0 0 0-.798 1.292v2.89a5.789 5.789 0 0 0 4.333 5.594v1.627a4.338 4.338 0 0 0 4.334 4.334h5.288a13.003 13.003 0 1 1 4.563-12.7Zm-18.515-20.52a1.444 1.444 0 1 1 2.889 0v5.778a1.444 1.444 0 0 1-2.89 0v-5.778Zm-13 4.334H13v1.444a4.323 4.323 0 0 0 1.408 3.194 15.863 15.863 0 0 0-4.993 4.028H2.89v-8.666Zm80.889 65a1.447 1.447 0 0 1-1.445 1.444h-78a1.447 1.447 0 0 1-1.444-1.444V79.222h4.63a15.883 15.883 0 1 0 28.3 0h47.959v53.445Zm0-56.334h-49.86a15.937 15.937 0 0 0-12.5-5.78c.165-.462.249-.95.249-1.442v-1.444h8.666v1.444a4.333 4.333 0 0 0 8.667 0v-1.444h8.667v1.444a4.333 4.333 0 1 0 8.666 0v-1.444H65v1.444a4.333 4.333 0 0 0 8.667 0v-1.444h10.11v8.666Z"/><path fill="#000" d="M49.373 112.445h-4.595v2.888h4.332a15.988 15.988 0 0 0 1.09 5.778H39V124h12.687a15.874 15.874 0 0 0 2.418 2.889h-7.883v2.889h12.17a15.812 15.812 0 0 0 6.975 1.444h.021a15.88 15.88 0 0 0 13.397-7.979 15.89 15.89 0 0 0-13.147-23.781 15.891 15.891 0 0 0-13.882 7.101l-.065.104H39v2.889h11.201a15.689 15.689 0 0 0-.828 2.889Zm18.218 15.631c-.516.104-1.037.176-1.562.217l-2.546-7.639a1.442 1.442 0 0 0-1.372-.987h-3.409a1.449 1.449 0 0 1-1.417-1.161l-.73-3.65 3.124-1.041c.305-.102.567-.302.745-.569l2.46-3.69h5.005v10.111a4.334 4.334 0 0 0 8.667 0v-1.445l.818 1.091a13.004 13.004 0 0 1-9.783 8.763Zm3.187-8.409v-9.148l.035.046 2.854 3.806v5.296a1.444 1.444 0 0 1-2.89 0Zm-16.614-11.509a13 13 0 0 1 23.84 7.18l-6.07-8.093a1.447 1.447 0 0 0-1.156-.578H62.11a1.44 1.44 0 0 0-1.202.643l-2.614 3.921-3.864 1.288a1.44 1.44 0 0 0-.96 1.653l.98 4.899a4.343 4.343 0 0 0 4.251 3.485h2.368l1.872 5.615a13.005 13.005 0 0 1-9.845-7.613 13.003 13.003 0 0 1 1.068-12.399v-.001ZM20.222 119.667a5.783 5.783 0 0 0-5.667 6.905 5.78 5.78 0 0 0 7.878 4.21A5.77 5.77 0 0 0 26 125.445a5.784 5.784 0 0 0-5.778-5.778Zm0 8.666a2.892 2.892 0 0 1-2.669-1.783 2.89 2.89 0 1 1 5.558-1.105 2.891 2.891 0 0 1-2.889 2.888ZM26.542 104.094l-2.856 2.285a5.782 5.782 0 0 0-7.624.603 5.784 5.784 0 1 0 9.43 1.652l2.855-2.284a1.444 1.444 0 1 0-1.805-2.256Zm-6.32 4.017c.36.001.715.068 1.05.2l-.942.753-.853-.852c.243-.066.494-.1.745-.101Zm0 5.778a2.881 2.881 0 0 1-2.835-2.322 2.88 2.88 0 0 1 .047-1.312l1.767 1.766a1.442 1.442 0 0 0 1.924.107l1.95-1.561a2.869 2.869 0 0 1-2.853 3.322Z"/><path fill="#000" d="M62.111 113.889h2.89v2.889h-2.89v-2.889ZM33.222 106.667h2.89v2.889h-2.89v-2.889ZM33.222 112.444h8.667v2.889h-8.667v-2.889ZM46.222 98a5.775 5.775 0 0 0 5.27-8.143l2.855-2.285a1.445 1.445 0 1 0-1.806-2.255L49.687 87.6a5.776 5.776 0 0 0-8.151 8.001A5.777 5.777 0 0 0 46.222 98Zm0-8.667c.36 0 .715.069 1.049.2l-.942.754-.852-.853c.243-.066.493-.1.745-.1Zm-2.788 2.144 1.767 1.767a1.445 1.445 0 0 0 1.923.106l1.95-1.56a2.888 2.888 0 1 1-5.64-.313ZM59.222 87.889h2.89v2.889h-2.89v-2.89ZM65 87.889h13v2.889H65v-2.89ZM59.222 93.667h11.556v2.889H59.222v-2.89ZM73.666 93.667H78v2.889h-4.334v-2.89ZM33.222 121.111h2.89V124h-2.89v-2.889ZM33.222 126.889h10.111v2.889h-10.11v-2.889Z"/></svg>