<svg xmlns="http://www.w3.org/2000/svg" width="253" height="138" fill="none"><g fill="#78C0DE" opacity=".05"><path d="M195.034 80.98c-.086-8.986-4.681-17.202-12.291-21.978-7.611-4.776-17.007-5.34-25.135-1.51l-19.588 9.23a16.5 16.5 0 0 0-7.561 7.18 16.493 16.493 0 0 0-1.792 10.276 16.502 16.502 0 0 0 4.691 9.317 16.49 16.49 0 0 0 9.321 4.684l.239.034a32.648 32.648 0 0 1 21.969 13.903 16.536 16.536 0 0 0 4.896 4.737 16.744 16.744 0 0 0 3.373 1.619 16.499 16.499 0 0 0 10.43.173 16.495 16.495 0 0 0 8.476-6.08 16.504 16.504 0 0 0 3.18-9.934l-.208-21.651ZM150.388 52.934c3.654.717 7.38-.252 10.491-2.729 2.962-2.356 5.017-5.825 5.788-9.767.768-3.942.17-7.928-1.685-11.227-1.95-3.465-5.035-5.766-8.686-6.478-7.341-1.438-14.641 4.168-16.275 12.499-1.293 6.635 1.395 13.023 6.252 16.072a12.06 12.06 0 0 0 4.115 1.63ZM177.184 52.89c7.393 4.639 17.709 1.56 22.995-6.862 5.288-8.425 3.574-19.054-3.819-23.694-7.393-4.64-17.708-1.56-22.996 6.866-5.286 8.423-3.572 19.05 3.82 23.69ZM197.985 71.174h.001a12.9 12.9 0 0 0 3.102 2.725c5.392 3.384 13.109 2.757 18.899-2.016 3.333-2.747 5.561-6.465 6.272-10.47.746-4.19-.238-8.19-2.77-11.261-2.532-3.072-6.271-4.8-10.528-4.868-4.066-.065-8.141 1.413-11.473 4.161-7.03 5.796-8.601 15.544-3.503 21.73ZM227.34 87.111l-.001-.003c-2.735-6.966-11.384-10.119-19.284-7.027-7.896 3.097-12.103 11.283-9.378 18.247.994 2.541 2.775 4.575 5.02 5.984 3.914 2.456 9.238 3.013 14.265 1.048 7.896-3.097 12.103-11.283 9.378-18.249Z"/></g><path fill="#E08122" d="M30.857 85.714v-3.336a3.858 3.858 0 0 1 1.388-2.963l5.539-4.616a2.832 2.832 0 0 1 4.644 2.176v5.057a5.787 5.787 0 0 1-1.694 4.091l-2.163 2.163v5.528a3.536 3.536 0 0 1-1.954 3.163l-3.189 1.594h-2.571V85.714ZM12.857 85.714v-3.336a3.858 3.858 0 0 0-1.388-2.963L5.93 74.799a2.831 2.831 0 0 0-4.644 2.176v5.057a5.786 5.786 0 0 0 1.694 4.091l2.163 2.163v5.528a3.536 3.536 0 0 0 1.954 3.163l3.189 1.594h2.571V85.714Z"/><path fill="#BF6E1D" d="M32.142 91.286a1.286 1.286 0 0 1-1.028-2.057L36 82.714v-2.143a1.285 1.285 0 1 1 2.571 0v2.572c0 .278-.09.549-.257.771l-5.143 6.857a1.282 1.282 0 0 1-1.03.515ZM11.573 91.286a1.283 1.283 0 0 1-1.03-.514L5.4 83.913a1.286 1.286 0 0 1-.257-.771V80.57a1.286 1.286 0 1 1 2.571 0v2.143L12.6 89.23a1.285 1.285 0 0 1-1.027 2.057Z"/><path fill="#FD9226" d="m33.377 129.789-1.234.925.681.227 1.418.472a2.574 2.574 0 0 1 1.758 2.44v2.004H7.714v-2.268a2.57 2.57 0 0 1 1.421-2.299l1.15-.576-2.35-2.351a5.143 5.143 0 0 1-1.506-3.635v-4.52a2.569 2.569 0 0 1 .753-1.819l3.104-3.103 2.571-6.429h18l2.572 6.429 3.103 3.103a2.577 2.577 0 0 1 .754 1.819v4.078a5.142 5.142 0 0 1-2.057 4.114l-1.852 1.389ZM30.857 108.857h-18l-2.571-6.428V90.283c0-1.279.508-2.505 1.412-3.41l.023-.022a4.822 4.822 0 0 1 2.727-1.364l.136-.02c4.824-.689 9.722-.689 14.546 0l.136.02a4.822 4.822 0 0 1 2.728 1.364l.022.023a4.821 4.821 0 0 1 1.413 3.409v12.146l-2.572 6.428Z"/><path fill="#985713" d="M26.67 112.714a4.19 4.19 0 0 1-3.485-1.864l-1.328-1.993-1.328 1.993a4.19 4.19 0 0 1-6.445.638 4.19 4.19 0 0 1-1.227-2.961v-1.911a4.186 4.186 0 0 1 4.187-4.187h9.625a4.188 4.188 0 0 1 4.188 4.187v1.911a4.188 4.188 0 0 1-4.188 4.187Z"/><path fill="#E08122" d="M14.143 132v3.857H11.57v-3.553l-1.15-2.3a1.3 1.3 0 0 1-.135-.575V123a1.285 1.285 0 1 1 2.571 0v6.125l1.15 2.3c.09.178.136.375.136.575ZM20.572 123v6.429a1.3 1.3 0 0 1-.136.575l-1.15 2.3v3.553h-2.572V132c0-.2.047-.396.135-.575l1.151-2.3V123a1.285 1.285 0 1 1 2.572 0ZM33.428 123v6.429c0 .199-.046.396-.135.575l-.469.937-.681 1.363v3.553H29.57V132c0-.2.047-.396.135-.575l1.151-2.3V123a1.285 1.285 0 1 1 2.571 0ZM27 132v3.857h-2.572v-3.553l-1.15-2.3a1.3 1.3 0 0 1-.135-.575V123a1.285 1.285 0 1 1 2.571 0v6.125l1.15 2.3c.09.179.136.375.136.575Z"/><path fill="#70400E" d="M21.857 107.571a2.571 2.571 0 1 0 0-5.142 2.571 2.571 0 0 0 0 5.142Z"/><path fill="#985713" d="M16.714 97.768a1.768 1.768 0 1 0 0-3.536 1.768 1.768 0 0 0 0 3.536ZM27.482 97.768a1.768 1.768 0 1 0 0-3.536 1.768 1.768 0 0 0 0 3.536Z"/><path fill="#DBDBDB" d="M52.714 107.571V132a5.145 5.145 0 0 1-5.143 5.143A5.144 5.144 0 0 1 42.428 132v-5.464a.964.964 0 0 0-.964-.965h-9.321a1.286 1.286 0 1 1 0-2.571h9.321A3.539 3.539 0 0 1 45 126.536V132a2.57 2.57 0 1 0 5.143 0v-24.429a1.285 1.285 0 1 1 2.571 0Z"/><path fill="#878787" d="M51.429 85.714A5.151 5.151 0 0 1 47.596 84a1.284 1.284 0 1 1 1.916-1.715A2.57 2.57 0 1 0 51.429 78a1.286 1.286 0 0 1-1.286-1.286V65.143a1.286 1.286 0 0 1 2.572 0V75.59a5.143 5.143 0 0 1-1.286 10.123Z"/><path fill="#CBCBCB" d="M66.857 66.429H50.143a2.571 2.571 0 1 1 0-5.143h16.714v5.143Z"/><path fill="#985713" d="M61.714 66.429h5.143v64.285h-5.143V66.429Z"/><path fill="#70400E" d="M70.714 135.857H57.857a7.21 7.21 0 0 1 3.21-5.997l.647-.431h5.143l.648.431a7.216 7.216 0 0 1 3.21 5.997Z"/><path fill="#C0F5F9" d="M45 111.429h2.571V114H45v-2.571ZM45 116.571h2.571v5.143H45v-5.143Z"/><path fill="#6B9777" d="M23.143 121.714H33.43v5.143H23.143v-5.143Z"/><path fill="#CBCBCB" d="M51.429 90.857a1.286 1.286 0 0 1-1.286-1.286V84.43a1.286 1.286 0 1 1 2.572 0v5.142a1.286 1.286 0 0 1-1.286 1.286Z"/><path fill="#C3C3C3" d="M52.715 107.571v1.124a5.183 5.183 0 0 1-2.572 0v-1.124a1.285 1.285 0 1 1 2.572 0Z"/><path fill="#70400E" d="M61.714 66.429h5.143V69h-5.143v-2.571Z"/><path fill="#C3C3C3" d="M33.429 123h1.285v2.571H33.43V123Z"/><path fill="#EBEBEB" d="M46.286 89.571H56.57v12.858a5.14 5.14 0 0 1-5.142 5.142 5.14 5.14 0 0 1-5.143-5.142V89.571Z"/><path fill="#C0F5F9" d="M51.428 107.571a5.14 5.14 0 0 1-5.142-5.142v-7.715H56.57v7.715a5.14 5.14 0 0 1-5.142 5.142Z"/><path fill="#85BC94" d="M54 99.857h-1.286v-1.286h-2.571v1.286h-1.286v2.572h1.286v1.285h2.571v-1.285H54v-2.572Z"/><path fill="#B8EAEE" d="M46.286 94.714H56.57V96H46.286v-1.286Z"/><path fill="#000" d="M16.714 97.768a1.768 1.768 0 1 0 0-3.536 1.768 1.768 0 0 0 0 3.536ZM27.482 97.768a1.768 1.768 0 1 0 0-3.536 1.768 1.768 0 0 0 0 3.536Z"/><path fill="#000" d="M3.857 88.818v4.996a4.798 4.798 0 0 0 2.665 4.313L9 99.366v3.063c0 .163.031.325.092.477l2.38 5.951-2.282 5.705-2.917 2.918a3.832 3.832 0 0 0-1.13 2.728v4.52a6.382 6.382 0 0 0 1.882 4.544l1.113 1.113a3.825 3.825 0 0 0-1.71 3.204v2.268a1.285 1.285 0 0 0 1.286 1.286H36a1.286 1.286 0 0 0 1.286-1.286v-2.004a3.856 3.856 0 0 0-2.415-3.578l1.129-.846a6.46 6.46 0 0 0 2.438-3.858h3.026a.968.968 0 0 1 .965.965V132a5.145 5.145 0 0 0 5.142 5.143A5.145 5.145 0 0 0 52.714 132v-23.271a6.442 6.442 0 0 0 5.143-6.3V89.571a1.286 1.286 0 0 0-1.286-1.285h-3.857v-2.734a5.143 5.143 0 0 0 0-9.96v-7.878h7.715v61.027l-.076.05a8.471 8.471 0 0 0-3.782 7.066 1.285 1.285 0 0 0 1.286 1.286h12.857A1.286 1.286 0 0 0 72 135.857a8.475 8.475 0 0 0-3.782-7.066l-.075-.051V61.286A1.286 1.286 0 0 0 66.857 60H50.143a3.857 3.857 0 1 0 0 7.714v9A1.286 1.286 0 0 0 51.429 78a2.57 2.57 0 1 1-1.917 4.285A1.285 1.285 0 1 0 47.596 84a5.152 5.152 0 0 0 2.547 1.55v2.736h-3.857A1.286 1.286 0 0 0 45 89.57v12.858a6.437 6.437 0 0 0 5.143 6.3V132A2.57 2.57 0 1 1 45 132v-5.464A3.539 3.539 0 0 0 41.464 123h-2.893v-2.792a3.83 3.83 0 0 0-1.13-2.728l-2.917-2.918-2.282-5.705 2.38-5.951c.061-.152.092-.314.092-.477v-3.063l2.479-1.24a4.797 4.797 0 0 0 2.664-4.312v-4.996l1.787-1.786a7.022 7.022 0 0 0 2.07-5v-5.057a4.116 4.116 0 0 0-6.753-3.164l-5.538 4.615a5.125 5.125 0 0 0-1.852 3.952v1.858l-.11-.019-.15-.022a52.802 52.802 0 0 0-14.92.002l-.122.018-.126.02v-1.857a5.126 5.126 0 0 0-1.851-3.951l-5.54-4.618A4.118 4.118 0 0 0 0 76.975v5.057a7.023 7.023 0 0 0 2.07 5l1.786 1.786Zm62.935 42.112a5.911 5.911 0 0 1 2.496 3.641H59.283a5.91 5.91 0 0 1 2.497-3.641l.323-.216h4.365l.324.216ZM63 128.143V67.714h2.571v60.429H63Zm-12.857-63a1.286 1.286 0 0 1 0-2.572H65.57v2.572H50.143ZM47.57 90.857h7.715v2.572H47.57v-2.572Zm0 11.572V96h7.715v6.429a3.856 3.856 0 0 1-6.585 2.727 3.855 3.855 0 0 1-1.13-2.727Zm-36 32.142H9v-.982a1.279 1.279 0 0 1 .71-1.149l1.15-.576a1.28 1.28 0 0 0 .359-.266l.353.706v2.267Zm19.286-5.446-1.15 2.3c-.09.178-.136.375-.136.575v2.571H27V132c0-.2-.047-.397-.136-.575l-1.15-2.3v-.982h5.143v.982Zm0-3.554h-5.143V123h5.143v2.571Zm3.857 9h-2.571v-2.267l.1-.201 1.591.53a1.285 1.285 0 0 1 .88 1.22v.718Zm-.257-7.2-1.028.772v-2.572h2.348a3.864 3.864 0 0 1-1.32 1.8Zm-1.938-11.176 3.104 3.103a1.276 1.276 0 0 1 .377.91V123h-2.571v-1.286a1.285 1.285 0 0 0-1.286-1.285h-7.714a1.286 1.286 0 0 0-1.286 1.285v7.715c0 .199.046.396.136.575l1.15 2.3v2.267h-5.143v-2.267l1.15-2.3c.089-.179.136-.376.135-.575V123A1.285 1.285 0 1 0 18 123v6.125l-1.15 2.3c-.09.178-.136.375-.136.575v2.571h-2.571V132c0-.2-.047-.397-.136-.575l-1.15-2.3V123a1.285 1.285 0 1 0-2.571 0v5.896l-1.442-1.442a3.882 3.882 0 0 1-1.13-2.726v-4.52a1.282 1.282 0 0 1 .378-.91l3.103-3.103c.123-.123.22-.27.284-.432l1.453-3.631a5.474 5.474 0 0 0 4.474 1.856 5.462 5.462 0 0 0 4.193-2.425l.258-.388.259.388a5.472 5.472 0 0 0 6.646 2.02 5.474 5.474 0 0 0 2.02-1.451l1.453 3.631c.065.162.161.309.284.432Zm-12.037-7.592-1.023 1.533a2.903 2.903 0 0 1-3.255 1.169 2.902 2.902 0 0 1-2.061-2.778v-1.911a2.906 2.906 0 0 1 2.902-2.902h1.176a3.856 3.856 0 0 0 2.26 4.889Zm.09-3.603a1.285 1.285 0 1 1 2.57 0 1.285 1.285 0 0 1-2.57 0Zm4.921-1.286h1.177a2.906 2.906 0 0 1 2.901 2.902v1.911a2.903 2.903 0 0 1-5.316 1.609l-1.022-1.533a3.858 3.858 0 0 0 2.26-4.889Zm6.65-21.336a2.564 2.564 0 0 1 .926-1.977l5.536-4.614a1.557 1.557 0 0 1 1.584-.24 1.543 1.543 0 0 1 .954 1.428v5.057a4.469 4.469 0 0 1-1.318 3.181l-2.163 2.163c-.241.242-.376.569-.376.91v5.528a2.239 2.239 0 0 1-1.244 2.013l-1.328.664v-6.208c0-.459-.051-.916-.154-1.364l3.754-5.005c.167-.222.257-.493.257-.771V80.57a1.286 1.286 0 1 0-2.571 0v2.143l-2.725 3.632a6.279 6.279 0 0 0-.35-.383l-.022-.022a6.115 6.115 0 0 0-.76-.641v-2.922Zm-19.535 5.404.022-.022a3.539 3.539 0 0 1 2.012-1.001l.124-.02c4.7-.67 9.47-.67 14.17-.001l.151.023a3.54 3.54 0 0 1 1.997.999l.023.022a3.512 3.512 0 0 1 1.036 2.501v11.898l-.703 1.757a5.477 5.477 0 0 0-4.77-2.795h-9.625a5.48 5.48 0 0 0-4.77 2.795l-.704-1.757V90.283a3.512 3.512 0 0 1 1.037-2.5ZM2.57 76.975a1.546 1.546 0 0 1 2.536-1.189l5.54 4.617a2.564 2.564 0 0 1 .925 1.975V85.3c-.27.193-.525.407-.76.641l-.023.023a6.25 6.25 0 0 0-.35.383l-2.725-3.633v-2.143a1.286 1.286 0 1 0-2.571 0v2.572c0 .278.09.549.257.771l3.754 5.005A6.156 6.156 0 0 0 9 90.283v6.208l-1.327-.663a2.24 2.24 0 0 1-1.244-2.014v-5.528a1.286 1.286 0 0 0-.377-.91l-2.163-2.163a4.468 4.468 0 0 1-1.318-3.18v-5.058Z"/><path fill="#000" d="M52.714 103.714v-1.285H54v-2.572h-1.286v-1.286h-2.571v1.286h-1.286v2.572h1.286v1.285h2.571ZM45 111.429h2.571V114H45v-2.571ZM45 116.571h2.571v5.143H45v-5.143Z"/></svg>