<svg xmlns="http://www.w3.org/2000/svg" width="253" height="138" fill="none"><g fill="#949494" opacity=".05"><path d="M195.034 80.98c-.086-8.986-4.681-17.202-12.291-21.978-7.611-4.776-17.007-5.34-25.135-1.51l-19.588 9.23a16.5 16.5 0 0 0-7.561 7.18 16.492 16.492 0 0 0-1.792 10.276 16.501 16.501 0 0 0 4.691 9.317 16.49 16.49 0 0 0 9.321 4.684l.239.034a32.648 32.648 0 0 1 21.969 13.903 16.536 16.536 0 0 0 4.896 4.737 16.744 16.744 0 0 0 3.373 1.619 16.499 16.499 0 0 0 10.43.173 16.495 16.495 0 0 0 8.476-6.08 16.504 16.504 0 0 0 3.18-9.934l-.208-21.651ZM150.388 52.934c3.654.717 7.38-.252 10.491-2.729 2.962-2.356 5.017-5.825 5.788-9.767.768-3.942.17-7.928-1.685-11.227-1.95-3.465-5.035-5.766-8.686-6.478-7.341-1.438-14.641 4.168-16.275 12.499-1.293 6.635 1.395 13.023 6.252 16.072a12.058 12.058 0 0 0 4.115 1.63ZM177.184 52.89c7.393 4.639 17.709 1.56 22.995-6.862 5.288-8.425 3.574-19.054-3.819-23.694-7.393-4.64-17.708-1.56-22.996 6.866-5.286 8.423-3.572 19.05 3.82 23.69ZM197.985 71.174h.001a12.9 12.9 0 0 0 3.102 2.725c5.392 3.384 13.109 2.757 18.899-2.016 3.333-2.747 5.561-6.465 6.272-10.47.746-4.19-.238-8.19-2.77-11.261-2.532-3.072-6.271-4.8-10.528-4.868-4.066-.065-8.141 1.413-11.473 4.161-7.03 5.796-8.601 15.544-3.503 21.73ZM227.34 87.111l-.001-.003c-2.735-6.966-11.384-10.119-19.284-7.027-7.896 3.097-12.103 11.283-9.378 18.247.994 2.541 2.775 4.575 5.02 5.984 3.914 2.456 9.238 3.013 14.265 1.048 7.896-3.097 12.103-11.283 9.378-18.249Z"/></g><path fill="#6B9777" d="M51.522 101.838v-6.337H33.776v6.337a5.07 5.07 0 0 0-5.07 5.071v22.816a5.071 5.071 0 0 0 5.07 5.07h17.746a5.07 5.07 0 0 0 5.07-5.07v-22.816a5.068 5.068 0 0 0-5.07-5.071Z"/><path fill="#CBCBCB" d="M56.592 85.36v7.606a2.535 2.535 0 0 1-2.535 2.535H31.241a2.532 2.532 0 0 1-2.535-2.535V85.36a2.535 2.535 0 0 1 2.535-2.535h22.816a2.535 2.535 0 0 1 2.535 2.535Z"/><path fill="#E4E4E2" d="M28.706 109.444h27.886v17.746H28.706v-17.746Z"/><path fill="#6B9777" d="M44.55 119.584h-3.802a1.901 1.901 0 1 0 0 3.803h3.802a1.901 1.901 0 1 0 0-3.803ZM42.649 117.049a1.266 1.266 0 0 1-1.268-1.267v-1.268a1.266 1.266 0 0 1 2.164-.896c.238.237.371.56.371.896v1.268a1.268 1.268 0 0 1-1.267 1.267ZM38.846 118.317a1.267 1.267 0 0 1-1.267-1.268v-1.267a1.268 1.268 0 1 1 2.535 0v1.267a1.266 1.266 0 0 1-1.268 1.268ZM46.452 118.317a1.267 1.267 0 0 1-1.268-1.268v-1.267a1.268 1.268 0 1 1 2.535 0v1.267a1.266 1.266 0 0 1-1.267 1.268Z"/><path fill="#C3C3C3" d="M1.267 136.064A1.265 1.265 0 0 1 0 134.857c-.01-.215.035-.43.13-.623l7.87-15.905a1.263 1.263 0 0 1 1.223-.714 1.258 1.258 0 0 1 1.122.865 1.263 1.263 0 0 1-.072.973l-7.87 15.905a1.272 1.272 0 0 1-1.137.706Z"/><path fill="#E4E4E2" d="M56.592 86.628v2.535H47.72a1.267 1.267 0 1 1 0-2.535h8.873ZM42.649 89.163h-2.535a1.268 1.268 0 0 1 0-2.535h2.535a1.268 1.268 0 0 1 0 2.535Z"/><path fill="#A45E14" d="M64.198 114.514v-5.07h-10.14v5.07a2.533 2.533 0 0 0-2.536 2.535v15.211a2.534 2.534 0 0 0 2.535 2.535h10.14a2.533 2.533 0 0 0 2.536-2.535v-15.211a2.534 2.534 0 0 0-2.535-2.535Z"/><path fill="#A8A8A8" d="M65.782 101.839h-13.31a.95.95 0 0 0-.95.95v5.704a.95.95 0 0 0 .95.951h13.31c.525 0 .95-.426.95-.951v-5.704a.95.95 0 0 0-.95-.95Z"/><path fill="#F3AF3E" d="M51.522 119.584h15.21v10.141h-15.21v-10.141Z"/><path fill="#EA9D2D" d="M66.732 123.387v2.535H62.93a1.266 1.266 0 0 1-.897-2.164 1.27 1.27 0 0 1 .897-.371h3.802ZM57.86 125.922h-1.268a1.266 1.266 0 0 1-.896-2.164 1.27 1.27 0 0 1 .896-.371h1.268a1.27 1.27 0 0 1 1.267 1.268 1.268 1.268 0 0 1-1.267 1.267Z"/><path fill="#5E8569" d="M33.776 95.5h17.746v2.536H33.776V95.5Z"/><path fill="#834B10" d="M54.057 109.444h10.14v2.535h-10.14v-2.535Z"/><path fill="#B9B9B9" d="m35.014 82.825-5.79 11.68a2.53 2.53 0 0 1-.518-1.54V85.36a2.535 2.535 0 0 1 2.535-2.535h3.773Z"/><path fill="#EBEBEB" d="m26 73.46 9.084 4.508-17.178 34.662a1.901 1.901 0 0 1-2.549.858L9.68 110.67a1.901 1.901 0 0 1-.857-2.549L26 73.46Z"/><path fill="#F388A2" d="m21.549 82.428 9.083 4.508-12.726 25.694a1.902 1.902 0 0 1-2.548.858L9.68 110.67a1.901 1.901 0 0 1-.857-2.549l12.726-25.693Z"/><path fill="#CF748A" d="m20.993 95.054 1.128-2.271 4.543 2.256-1.128 2.271-4.543-2.256ZM18.739 99.598l1.128-2.272 4.543 2.257-1.128 2.271-4.543-2.256ZM16.485 104.142l1.128-2.271 4.543 2.256-1.128 2.271-4.543-2.256ZM14.231 108.686l1.128-2.272 4.543 2.257-1.128 2.271-4.543-2.256Z"/><path fill="#4799CF" d="M9.154 118.87a2.537 2.537 0 0 1-1.143-3.4l2.256-4.543 4.543 2.257-2.256 4.543a2.535 2.535 0 0 1-3.4 1.143Z"/><path fill="#F3AF3E" d="M24.94 88.294a1.267 1.267 0 0 1-1.136-1.83l9.55-19.253a1.267 1.267 0 1 1 2.271 1.126l-9.55 19.253a1.268 1.268 0 0 1-1.136.704Z"/><path fill="#EA9D2D" d="m29.414 75.154-5.609 11.31a1.267 1.267 0 1 0 2.271 1.126l5.608-11.308-2.27-1.128Z"/><path fill="#DA922A" d="m21.549 82.428 9.083 4.508-2.3 4.69-9.084-4.51 2.3-4.688Z"/><path fill="#4799CF" d="m31.074 66.065 6.814 3.384a2.536 2.536 0 1 0 2.257-4.543l-6.815-3.384a2.536 2.536 0 1 0-2.256 4.543Z"/><path fill="#000" d="M65.782 110.711A2.217 2.217 0 0 0 68 108.493v-5.704a2.222 2.222 0 0 0-2.218-2.218H52.789v-3.803h1.268a3.807 3.807 0 0 0 3.803-3.802V85.36a3.807 3.807 0 0 0-3.803-3.802H34.719l1.5-3.027a1.267 1.267 0 0 0-.572-1.698l-3.403-1.69 2.817-5.67 2.271 1.128a3.802 3.802 0 1 0 3.382-6.813l-6.812-3.382a3.8 3.8 0 0 0-5.117 1.706 3.804 3.804 0 0 0 1.735 5.107l2.27 1.127-2.817 5.67-3.409-1.692a1.268 1.268 0 0 0-1.699.573L7.687 107.558a3.176 3.176 0 0 0 .89 3.909l-1.719 3.463a3.793 3.793 0 0 0 .68 4.337L.132 134.234a1.27 1.27 0 0 0 1.541 1.764 1.274 1.274 0 0 0 .73-.639l7.404-14.963a3.81 3.81 0 0 0 3.864-2.085l1.719-3.464c.264.071.536.107.81.108a3.174 3.174 0 0 0 2.84-1.762l9.005-18.17a3.802 3.802 0 0 0 3.196 1.745h1.267v3.93a6.345 6.345 0 0 0-5.07 6.211v22.816a6.344 6.344 0 0 0 6.338 6.337h17.746c.482.001.963-.054 1.433-.163.357.108.729.164 1.102.163h10.14A3.806 3.806 0 0 0 68 132.26v-15.211a3.808 3.808 0 0 0-2.535-3.584v-2.754h.317ZM31.647 64.948a1.268 1.268 0 0 1 1.128-2.27l6.812 3.38a1.269 1.269 0 1 1-1.127 2.271l-6.813-3.381Zm-.531 12.466 2.27 1.126-1.845 3.722-1.476 2.978-2.277-1.13 3.328-6.697Zm-4.543-2.255 2.272 1.127-3.328 6.696-2.264-1.123 3.32-6.7ZM11.4 117.184a1.27 1.27 0 0 1-2.27-1.127l1.69-3.407 2.27 1.127-1.69 3.407Zm14.094-22.721L22.1 92.777l-1.128 2.271 3.397 1.686-1.125 2.271-3.398-1.686-1.127 2.27 3.4 1.688-1.127 2.271-3.401-1.688-1.127 2.271 3.402 1.689-1.125 2.271-3.404-1.689-1.127 2.271 3.405 1.69-.845 1.703a.635.635 0 0 1-.849.286l-5.677-2.818a.636.636 0 0 1-.285-.85l9.85-19.875 6.812 3.381-1.127 2.273Zm3.31-6.678-1.058 2.135-6.804-3.378 1.053-2.146.132-.266 6.811 3.38-.134.275Zm2.437 6.448a1.269 1.269 0 0 1-1.268-1.267v-1.81l1.11-2.26 2.38-4.803h20.594a1.27 1.27 0 0 1 1.267 1.267v1.268H47.72a1.268 1.268 0 0 0 0 2.535h7.605v3.803a1.27 1.27 0 0 1-1.267 1.267H31.24Zm-1.268 12.676a3.809 3.809 0 0 1 3.803-3.803 1.266 1.266 0 0 0 1.268-1.267v-5.07h15.21v11.407h-20.28v-1.267Zm3.803 26.618a3.806 3.806 0 0 1-3.803-3.802v-1.268h20.281v3.803c0 .432.074.86.218 1.267H33.776Zm16.478-16.478v8.873h-20.28v-15.211h22.815v2.754a3.802 3.802 0 0 0-2.535 3.584Zm15.21 15.211a1.27 1.27 0 0 1-1.267 1.267h-10.14a1.27 1.27 0 0 1-1.268-1.267v-1.268h12.676v1.268Zm0-8.873H62.93a1.266 1.266 0 0 0-.897 2.164c.238.237.56.371.897.371h2.535v2.535H52.789v-7.605h12.676v2.535Zm0-5.07H52.79v-1.268a1.27 1.27 0 0 1 1.268-1.267h10.14a1.27 1.27 0 0 1 1.268 1.267v1.268Zm-10.14-5.07v-2.536h7.606v2.536h-7.605Zm-2.535-5.071v-5.07h12.676v5.07H52.789Z"/><path fill="#000" d="M44.55 119.584h-3.802a1.904 1.904 0 0 0-1.902 1.902 1.901 1.901 0 0 0 1.902 1.901h3.802a1.9 1.9 0 0 0 1.902-1.901 1.902 1.902 0 0 0-1.902-1.902ZM42.649 117.049a1.266 1.266 0 0 0 1.267-1.267v-1.268a1.266 1.266 0 0 0-2.163-.896c-.238.237-.372.56-.372.896v1.268a1.268 1.268 0 0 0 1.268 1.267ZM40.114 117.049v-1.267a1.268 1.268 0 1 0-2.535 0v1.267a1.266 1.266 0 0 0 2.163.896c.238-.237.372-.56.372-.896ZM46.452 114.514a1.27 1.27 0 0 0-1.268 1.268v1.267a1.266 1.266 0 0 0 2.164.896c.238-.237.371-.56.371-.896v-1.267a1.268 1.268 0 0 0-1.267-1.268ZM56.592 125.922h1.268a1.266 1.266 0 0 0 .896-2.164 1.27 1.27 0 0 0-.896-.371h-1.268a1.27 1.27 0 0 0-1.267 1.268 1.268 1.268 0 0 0 1.267 1.267ZM40.114 89.163h2.535a1.267 1.267 0 1 0 0-2.535h-2.535a1.268 1.268 0 0 0 0 2.535Z"/></svg>