<svg xmlns="http://www.w3.org/2000/svg" width="253" height="138" fill="none"><path fill="#89CEEA" d="M52.865 98.024a6.051 6.051 0 1 1-12.102 0 6.051 6.051 0 0 1 12.102 0Z"/><path fill="#78C0DE" d="M46.815 91.974c-.802 0-1.568.157-2.269.441a6.052 6.052 0 0 1 0 11.218 6.051 6.051 0 1 0 2.269-11.66Z"/><path fill="#E8E1D5" d="M37.437 119.36v16.252H1.134V119.36c0-5.607 3.82-10.316 8.991-11.653a11.823 11.823 0 0 1 3.003-.382h12.316c.551 0 1.093.038 1.626.11a12.026 12.026 0 0 1 10.367 11.925Z"/><path fill="#D6CFC4" d="M28.455 107.71a11.553 11.553 0 0 0-1.385-.275 12.116 12.116 0 0 0-1.626-.11h-4.538c.552 0 1.093.038 1.626.11a12.026 12.026 0 0 1 10.367 11.925v16.252h4.538V119.36a12.026 12.026 0 0 0-8.982-11.65Z"/><path fill="#FF573D" d="m28.455 107.71-9.165 27.902-9.164-27.905a11.815 11.815 0 0 1 3.002-.382h12.316c.551 0 1.093.038 1.626.11.471.064.933.156 1.385.275Z"/><path fill="#EBA28C" d="M26.13 107.324c.546 0 .945.515.81 1.044-.671 2.64-3.843 4.64-7.655 4.64-3.81 0-6.983-2-7.655-4.64a.837.837 0 0 1 .811-1.044h2.349v-8.835h8.991v8.835h2.35Z"/><path fill="#C4BEB4" d="M19.286 135.612c.046-.392-3.866-25.124-4.523-29.276a.603.603 0 0 0-.684-.502l-6.282.901a.606.606 0 0 0-.517.558l-.56 8.21 2.64 1.607-.736 3.839 10.662 14.663Z"/><path fill="#C4BEB4" d="M19.287 135.612c-.047-.392 3.864-25.124 4.522-29.276a.603.603 0 0 1 .684-.502l6.282.901a.605.605 0 0 1 .517.558l.56 8.21-2.64 1.607.735 3.839-10.66 14.663Z"/><path fill="#EBA28C" d="M8.244 83.654c0 2.256-1.64 4.085-3.66 4.085-2.022 0-3.298-2.096-3.298-4.351 0-2.662 1.276-3.818 3.297-3.818 2.022 0 3.66 1.83 3.66 4.084ZM30.328 83.654c0 2.256 1.639 4.085 3.66 4.085s3.298-2.096 3.298-4.351c0-2.662-1.277-3.818-3.298-3.818s-3.66 1.83-3.66 4.084Z"/><path fill="#FCC19C" d="M5.975 88.91V79.06c0-6.931 5.619-12.55 12.55-12.55h1.521c6.931 0 12.55 5.619 12.55 12.55v9.848c0 7.345-5.954 13.299-13.298 13.299h-.025c-7.344 0-13.298-5.954-13.298-13.299Z"/><path fill="#EBA28C" d="M20.046 66.51h-1.52c-.512 0-1.015.035-1.51.094 6.22.746 11.043 6.037 11.043 12.457v9.848c0 6.576-4.773 12.036-11.042 13.108a13.42 13.42 0 0 0 2.256.191h.025c7.344 0 13.298-5.954 13.298-13.299v-9.848c0-6.931-5.619-12.55-12.55-12.55Z"/><path fill="#633327" d="M5.975 83.54a.15.15 0 0 0 .182.149c.605-.128 2.522-.65 2.692-2.178.201-1.815 3.64-6.958 9.08-7.462 3.962-.367 5.887-2.445 6.641-3.548.151-.22.49-.156.546.104.3 1.4 1.118 4.32 2.947 5.966 2.418 2.174 1.69 6.958 4.368 7.146a.153.153 0 0 0 .166-.151v-3.78c0-.4.325-.725.725-.725h.066c.337 0 .629-.23.706-.557.329-1.386 1.03-5.092-.024-7.984-1.322-3.63-5.026-5.143-5.026-5.143s-1.257-4.941-8.961-4.941c-7.705 0-10.727 3.244-10.727 3.244s-5.852 5.017-5.348 9.408c.339 2.95.468 4.875.516 5.82.02.385.339.688.725.688.4 0 .726.325.726.725v3.22Z"/><path fill="#572D22" d="M34.07 70.52c-1.322-3.63-5.026-5.143-5.026-5.143s-1.257-4.941-8.961-4.941c-.904 0-1.741.046-2.518.125 5.91.767 6.94 4.816 6.94 4.816s3.705 1.513 5.027 5.143c1.054 2.892.352 6.598.024 7.985a.705.705 0 0 1-.103.235c.881 2.237 1.017 4.84 2.978 4.977a.153.153 0 0 0 .166-.151v-3.78c0-.4.325-.725.725-.725h.066c.336 0 .628-.23.706-.557.329-1.386 1.03-5.092-.024-7.984ZM13.392 74.05c-4.037.373-6.97 3.3-8.298 5.528.05.01.102.018.155.018.4 0 .726.325.726.725v3.22a.15.15 0 0 0 .182.148c.605-.128 2.522-.65 2.692-2.177.201-1.815 3.64-6.958 9.08-7.463 1.37-.127 2.496-.458 3.415-.883-2.487.354-3.99.516-7.952.883Z"/><path fill="#CEE8F2" d="M17.089 85.5a3.782 3.782 0 1 1-7.563 0 3.782 3.782 0 0 1 7.563 0ZM29.045 85.5a3.782 3.782 0 1 1-7.563 0 3.782 3.782 0 0 1 7.563 0Z"/><path fill="#000" d="M54 98.024c0-3.962-3.223-7.185-7.185-7.185-3.962 0-7.185 3.223-7.185 7.185 0 3.576 2.626 6.549 6.05 7.095v1.453c0 4.565-3.282 8.375-7.61 9.2a13.215 13.215 0 0 0-5.576-7.52l-.07-1.036a1.75 1.75 0 0 0-1.488-1.604l-1.995-.286c3.932-2.056 6.622-6.173 6.622-10.908V88.54c1.703-.752 2.857-2.72 2.857-5.153 0-2.645-1.141-4.341-3.178-4.816.376-1.657 1.002-5.4-.106-8.44-1.193-3.276-4.043-5.002-5.184-5.581-.603-1.45-2.853-5.25-9.87-5.25-7.65 0-11.032 3.082-11.503 3.551-.576.503-6.247 5.581-5.697 10.365.294 2.568.428 4.347.487 5.346-2.061.46-3.218 2.162-3.218 4.825 0 2.45 1.17 4.427 2.891 5.169v5.86c0 4.733 2.688 8.847 6.616 10.905l-2.022.29a1.75 1.75 0 0 0-1.488 1.604l-.07 1.036A13.218 13.218 0 0 0 0 119.36v7.706a1.135 1.135 0 0 0 2.269 0v-7.706c0-3.118 1.341-6.061 3.604-8.107l-.285 4.173c-.03.423.18.826.542 1.046l1.968 1.197-.588 3.067c-.06.308.012.627.197.88l9.351 12.862H2.268v-2.59a1.135 1.135 0 1 0-2.268 0v3.724c0 .627.508 1.135 1.134 1.135h36.303c.626 0 1.134-.508 1.134-1.135V119.36c0-.458-.024-.912-.071-1.361 5.374-1.026 9.45-5.758 9.45-11.427v-1.453c3.424-.546 6.05-3.519 6.05-7.095ZM35.75 115.94h-2.853c.067-.16.1-.335.087-.514l-.285-4.172a10.958 10.958 0 0 1 3.051 4.686Zm-5.077-1.048-1.662 1.012a9.331 9.331 0 0 1-5.223-2.161c.06-.391.77-4.88 1.06-6.713l5.341.768.484 7.094Zm-11.4-11.55h.024c1.153 0 2.275-.136 3.35-.392v1.503h-6.722v-1.503a14.44 14.44 0 0 0 3.349.392Zm-3.3 3.38h2.2c.023 1.851.482 3.6 1.277 5.148l-.164.003c-.879 0-1.75-.123-2.555-.356l-.758-4.795Zm5.87 4.779a9.317 9.317 0 0 1-1.402-4.779H22.6c-.267 1.69-.52 3.281-.755 4.779Zm-2.557 2.641c.543 0 1.077-.036 1.6-.108.152.183.311.359.474.531-.938 5.955-1.603 10.22-2.074 13.279-.487-3.165-1.183-7.621-2.173-13.904.703.133 1.429.202 2.173.202Zm5.63-9.828v-2.11a14.494 14.494 0 0 0 8.378-9.769v1.983c0 4.969-3.63 9.104-8.379 9.896ZM36.15 83.388c0 1.581-.809 3.216-2.163 3.216a2.18 2.18 0 0 1-.257-.016v-5.867c.085-.01.17-.016.257-.016 1.07 0 2.163.319 2.163 2.683ZM10.095 64.542c.032-.027.063-.057.091-.088.027-.03 2.769-2.884 9.897-2.884 6.65 0 7.818 3.93 7.861 4.087.082.356.33.628.667.77.033.012 3.266 1.387 4.393 4.481.893 2.449.34 5.716.054 7.037a1.863 1.863 0 0 0-1.596 1.842v1.46c-.113-.316-.23-.691-.36-1.127-.446-1.5-.953-3.2-2.281-4.393-1.617-1.455-2.354-4.233-2.596-5.36a1.435 1.435 0 0 0-2.591-.506c-.687 1.005-2.355 2.738-5.809 3.059l-.145.014a1.134 1.134 0 1 0 .241 2.256l.113-.01c3.151-.293 5.166-1.566 6.387-2.753.506 1.634 1.39 3.644 2.883 4.987.854.767 1.245 2.082 1.625 3.355.445 1.491.983 3.294 2.533 3.887v4.253c0 6.708-5.456 12.165-12.165 12.165h-.023c-6.708 0-12.165-5.457-12.165-12.165v-4.302a5.202 5.202 0 0 0 1.588-.812A4.89 4.89 0 0 0 8.39 85.5a4.922 4.922 0 0 0 4.916 4.916 4.924 4.924 0 0 0 4.783-3.781h2.392a4.924 4.924 0 0 0 4.782 3.781A4.922 4.922 0 0 0 30.18 85.5a4.922 4.922 0 0 0-4.916-4.916 4.923 4.923 0 0 0-4.782 3.782H18.09a4.924 4.924 0 0 0-4.783-3.782 4.9 4.9 0 0 0-3.38 1.352c.02-.098.038-.198.05-.3.096-.87 1.537-3.337 3.947-4.95a1.135 1.135 0 0 0-1.262-1.885c-2.809 1.88-4.752 4.882-4.94 6.585-.035.305-.288.555-.613.748v-1.817a1.854 1.854 0 0 0-.589-1.35l-.038-.038-.031-.025a1.845 1.845 0 0 0-.812-.402c-.06-1.015-.196-2.866-.504-5.544-.356-3.1 3.46-7.127 4.96-8.416ZM10.66 85.5a2.65 2.65 0 0 1 2.647-2.647 2.65 2.65 0 0 1 2.647 2.647 2.65 2.65 0 0 1-2.647 2.647A2.65 2.65 0 0 1 10.66 85.5Zm11.957 0a2.65 2.65 0 0 1 2.647-2.647 2.65 2.65 0 0 1 2.647 2.647 2.65 2.65 0 0 1-2.647 2.647 2.65 2.65 0 0 1-2.647-2.647ZM4.583 80.705c.087 0 .172.007.257.017v5.866a2.18 2.18 0 0 1-.257.016c-1.354 0-2.163-1.635-2.163-3.216 0-2.364 1.094-2.683 2.163-2.683Zm.728 13.713V92.57a14.498 14.498 0 0 0 8.345 9.633v2.103c-4.731-.806-8.345-4.932-8.345-9.89ZM9.95 116.14l-2.052-1.248.402-5.888.002-.021.08-1.186 5.343-.767c.29 1.838 3.127 19.894 3.786 24.212L9.83 120.68l.643-3.357c.09-.465-.12-.937-.524-1.183Zm26.353 18.338h-14.79l4.973-6.84a1.135 1.135 0 1 0-1.835-1.334l-3.59 4.938c.546-3.583 1.39-8.993 2.328-14.969a11.56 11.56 0 0 0 4.858 1.828l.494 2.579-1.232 1.693a1.135 1.135 0 0 0 1.835 1.335l1.52-2.091c.186-.254.257-.573.198-.881l-.484-2.527h5.662c.04.379.062.764.062 1.151v15.118Zm10.512-31.538a4.921 4.921 0 0 1-4.916-4.916 4.921 4.921 0 0 1 4.916-4.916 4.921 4.921 0 0 1 4.916 4.916 4.921 4.921 0 0 1-4.916 4.916Z"/><g fill="#78C0DE" opacity=".05"><path d="M195.034 80.98c-.086-8.986-4.681-17.202-12.291-21.978-7.611-4.776-17.007-5.34-25.135-1.51l-19.588 9.23a16.5 16.5 0 0 0-7.561 7.18 16.493 16.493 0 0 0-1.792 10.276 16.502 16.502 0 0 0 4.691 9.317 16.49 16.49 0 0 0 9.321 4.684l.239.034a32.648 32.648 0 0 1 21.969 13.903 16.536 16.536 0 0 0 4.896 4.737 16.744 16.744 0 0 0 3.373 1.619 16.499 16.499 0 0 0 10.43.173 16.495 16.495 0 0 0 8.476-6.08 16.504 16.504 0 0 0 3.18-9.934l-.208-21.651ZM150.388 52.934c3.654.717 7.38-.252 10.491-2.729 2.962-2.356 5.017-5.825 5.788-9.767.768-3.942.17-7.928-1.685-11.227-1.95-3.465-5.035-5.766-8.686-6.478-7.341-1.438-14.641 4.168-16.275 12.499-1.293 6.635 1.395 13.023 6.252 16.072a12.06 12.06 0 0 0 4.115 1.63ZM177.184 52.89c7.393 4.639 17.709 1.56 22.995-6.862 5.288-8.425 3.574-19.054-3.819-23.694-7.393-4.64-17.708-1.56-22.996 6.866-5.286 8.423-3.572 19.05 3.82 23.69ZM197.985 71.174h.001a12.9 12.9 0 0 0 3.102 2.725c5.392 3.384 13.109 2.757 18.899-2.016 3.333-2.747 5.561-6.465 6.272-10.47.746-4.19-.238-8.19-2.77-11.261-2.532-3.072-6.271-4.8-10.528-4.868-4.066-.065-8.141 1.413-11.473 4.161-7.03 5.796-8.601 15.544-3.503 21.73ZM227.34 87.111l-.001-.003c-2.735-6.966-11.384-10.119-19.284-7.027-7.896 3.097-12.103 11.283-9.378 18.247.994 2.541 2.775 4.575 5.02 5.984 3.914 2.456 9.238 3.013 14.265 1.048 7.896-3.097 12.103-11.283 9.378-18.249Z"/></g></svg>