<svg xmlns="http://www.w3.org/2000/svg" width="253" height="138" fill="none"><g fill="#949494" opacity=".05"><path d="M195.034 80.98c-.086-8.986-4.681-17.202-12.291-21.978-7.611-4.776-17.007-5.34-25.135-1.51l-19.588 9.23a16.5 16.5 0 0 0-7.561 7.18 16.493 16.493 0 0 0-1.792 10.276 16.502 16.502 0 0 0 4.691 9.317 16.49 16.49 0 0 0 9.321 4.684l.239.034a32.648 32.648 0 0 1 21.969 13.903 16.536 16.536 0 0 0 4.896 4.737 16.744 16.744 0 0 0 3.373 1.619 16.499 16.499 0 0 0 10.43.173 16.495 16.495 0 0 0 8.476-6.08 16.504 16.504 0 0 0 3.18-9.934l-.208-21.651ZM150.388 52.934c3.654.717 7.38-.252 10.491-2.729 2.962-2.356 5.017-5.825 5.788-9.767.768-3.942.17-7.928-1.685-11.227-1.95-3.465-5.035-5.766-8.686-6.478-7.341-1.438-14.641 4.168-16.275 12.499-1.293 6.635 1.395 13.023 6.252 16.072a12.06 12.06 0 0 0 4.115 1.63ZM177.184 52.89c7.393 4.639 17.709 1.56 22.995-6.862 5.288-8.425 3.574-19.054-3.819-23.694-7.393-4.64-17.708-1.56-22.996 6.866-5.286 8.423-3.572 19.05 3.82 23.69ZM197.985 71.174h.001a12.9 12.9 0 0 0 3.102 2.725c5.392 3.384 13.109 2.757 18.899-2.016 3.333-2.747 5.561-6.465 6.272-10.47.746-4.19-.238-8.19-2.77-11.261-2.532-3.072-6.271-4.8-10.528-4.868-4.066-.065-8.141 1.413-11.473 4.161-7.03 5.796-8.601 15.544-3.503 21.73ZM227.34 87.111l-.001-.003c-2.735-6.966-11.384-10.119-19.284-7.027-7.896 3.097-12.103 11.283-9.378 18.247.994 2.541 2.775 4.575 5.02 5.984 3.914 2.456 9.238 3.013 14.265 1.048 7.896-3.097 12.103-11.283 9.378-18.249Z"/></g><path fill="#F6BB92" d="M52.445 127.799v-11.513h7.676v14.071a5.116 5.116 0 0 1-5.117 5.117h-2.559v-7.675Z"/><path fill="#834B10" d="m56.283 104.773 1.08-2.559.958-2.269a6.662 6.662 0 0 0-1.43-7.293 6.662 6.662 0 0 1-1.951-4.71v-6.195H26.86v6.195a6.662 6.662 0 0 1-1.95 4.71 6.662 6.662 0 0 0-1.431 7.293l1.013 2.412 31.79 2.416Z"/><path fill="#85BC94" d="M60.12 109.995a7.678 7.678 0 0 0-6.413-7.571l-1.262-.21-6.606-1.101-4.907 4.939-4.958-4.977-9.113 1.139v33.26h25.584V125.24a7.235 7.235 0 0 0 1.017-8.954h6.658v-6.291Z"/><path fill="#834B10" d="M55.004 83.026H26.86v-7.675a14.071 14.071 0 0 1 28.143 0v7.675Z"/><path fill="#F6BB92" d="M51.166 79.188h-1.28v-7.675H31.979v7.675h-1.28a3.838 3.838 0 1 0 0 7.676h1.28v1.279a8.954 8.954 0 1 0 17.909 0v-1.28h1.279a3.838 3.838 0 1 0 0-7.675Z"/><path fill="#BD9070" d="M39.653 110.937v24.537H11.031a24.692 24.692 0 0 1 3.313-4.113l.094-.094a25.358 25.358 0 0 0 5.39-7.954c.503-1.17 1.003-2.341 1.368-3.19l.548-1.279h-3.68a5.123 5.123 0 0 1-4.964-3.876l-.63-2.52-.165-.659a2.557 2.557 0 0 1 2.482-3.179h4.399a10.928 10.928 0 0 1 4.747-5.919l.56-.335a9.981 9.981 0 0 1 9.59-.369l.057.029a9.975 9.975 0 0 1 5.513 8.921Z"/><path fill="#9E785D" d="M39.653 111.169v3.629a3.835 3.835 0 0 1-5.05 3.641 3.836 3.836 0 0 1-2.625-3.641v-6.188h5.117l2.558 2.559ZM27.766 117.191l-2.558 2.558a1.28 1.28 0 0 1-.905.374h-3.107l.548-1.279h-3.68a5.1 5.1 0 0 1-3.383-1.279h9.092l2.183-2.185a1.279 1.279 0 0 1 1.81 1.811ZM16.628 108.61v1.546a2.293 2.293 0 0 1-2.292 2.292H12.47l-.165-.659a2.557 2.557 0 0 1 2.482-3.179h1.84ZM20.595 132.314a1.277 1.277 0 0 1-1.273-1.394 1.28 1.28 0 0 1 .25-.653 23.6 23.6 0 0 0 3.517-6.711 1.27 1.27 0 0 1 .64-.748 1.279 1.279 0 0 1 1.787 1.557 26.157 26.157 0 0 1-3.896 7.437 1.27 1.27 0 0 1-1.025.512Z"/><path fill="#834B10" d="M30.699 79.188a8.722 8.722 0 0 0 5.34-5.035l1.056-2.64-6.396-1.28v8.955ZM37.095 71.513l.15.225a16.732 16.732 0 0 0 13.921 7.45v-8.954l-14.071 1.279ZM36.135 83.346a1.599 1.599 0 1 0 0-3.198 1.599 1.599 0 0 0 0 3.198ZM45.73 83.346a1.599 1.599 0 1 0 0-3.198 1.599 1.599 0 0 0 0 3.198ZM40.932 88.143h-2.558a1.279 1.279 0 0 1-1.144-1.852l2.558-5.117a1.28 1.28 0 0 1 2.364.164 1.28 1.28 0 0 1-.076.98l-1.632 3.266h.488a1.28 1.28 0 0 1 0 2.559Z"/><path fill="#C3C3C3" d="M48.608 112.448a1.28 1.28 0 0 1-1.28-1.279v-8.955a1.279 1.279 0 0 1 2.559 0v8.955a1.279 1.279 0 0 1-1.28 1.279Z"/><path fill="#E4E4E2" d="M48.608 118.844a3.838 3.838 0 1 0 0-7.675 3.838 3.838 0 0 0 0 7.675Z"/><path fill="#C3C3C3" d="M48.608 116.286a1.28 1.28 0 1 0 0-2.56 1.28 1.28 0 0 0 0 2.56Z"/><path fill="#F6BB92" d="M53.725 135.474H34.536a3.84 3.84 0 0 1-3.837-3.838 3.837 3.837 0 0 1 3.838-3.838h1.279a2.56 2.56 0 0 1 2.558-2.558h.22c.678 0 1.329.27 1.809.749l1.809 1.809h11.513v7.676ZM11.173 129.535a3.192 3.192 0 0 0 2.044 4.386l4.924 1.391a3.836 3.836 0 0 0 4.737-2.649 3.838 3.838 0 0 0-2.65-4.736l-1.23-.348a2.56 2.56 0 0 0-1.767-3.158l-.211-.06a2.571 2.571 0 0 0-1.945.229 7.77 7.77 0 0 0-3.286 3.581l-.616 1.364Z"/><path fill="#DC4D41" d="M4.51 94.348c.851 0 1.668.338 2.27.94l1.618 1.618 1.618-1.618a3.212 3.212 0 0 1 5.386 1.493A3.925 3.925 0 0 1 13.771 101l-5.373 3.581L3.026 101a3.93 3.93 0 0 1-1.631-4.22 3.211 3.211 0 0 1 3.115-2.432Z"/><path fill="#EEB58E" d="M30.699 79.188h1.279v7.675h-1.28v-7.675ZM49.887 79.188h1.279v7.675h-1.28v-7.675Z"/><path fill="#F6BB92" d="m35.974 101.075 4.958 4.977 4.907-4.939a1.28 1.28 0 0 1-1.069-1.262v-4.033h-7.675v3.988a1.276 1.276 0 0 1-1.12 1.269Z"/><path fill="#85BC94" d="M40.933 97.097a8.955 8.955 0 0 1-8.955-8.954v-1.28h17.91v1.28a8.954 8.954 0 0 1-8.955 8.954Z"/><path fill="#9E785D" d="M25.582 111.169a1.28 1.28 0 1 0 0-2.56 1.28 1.28 0 0 0 0 2.56Z"/><path fill="#000" d="M36.135 83.346a1.599 1.599 0 1 0 0-3.198 1.599 1.599 0 0 0 0 3.198ZM45.73 83.346a1.599 1.599 0 1 0 0-3.198 1.599 1.599 0 0 0 0 3.198ZM48.608 116.286a1.28 1.28 0 1 0 0-2.56 1.28 1.28 0 0 0 0 2.56Z"/><path fill="#000" d="m58.319 103.238 1.18-2.797a7.913 7.913 0 0 0-1.705-8.694 5.378 5.378 0 0 1-1.576-3.806l.065-12.59a15.35 15.35 0 0 0-30.701 0v12.59a5.421 5.421 0 0 1-1.576 3.806 7.938 7.938 0 0 0-1.706 8.694l.587 1.397a12.196 12.196 0 0 0-4.586 5.493h-3.514a3.806 3.806 0 0 0-3.024 1.475 3.803 3.803 0 0 0-.7 3.294l.165.659.63 2.519a6.383 6.383 0 0 0 6.204 4.845h1.741l-1.151 2.687c-.099.23-.203.46-.31.689a3.828 3.828 0 0 0-.763-.309l-.212-.06a3.802 3.802 0 0 0-2.917.343 9.111 9.111 0 0 0-3.827 4.171l-.616 1.365a4.468 4.468 0 0 0 .659 4.724c-.246.345-.484.695-.712 1.049a1.277 1.277 0 0 0 .424 1.792c.197.117.423.179.653.179h43.973a6.404 6.404 0 0 0 6.396-6.396v-20.362a8.945 8.945 0 0 0-3.081-6.757Zm.523 6.757v5.011h-4.71a8.905 8.905 0 0 0-.436-.536 5.134 5.134 0 0 0-3.809-4.419v-6.966l2.348.391h.001l1.261.211a6.392 6.392 0 0 1 5.345 6.308Zm-7.385 14.433-.016.022a1.21 1.21 0 0 0-.059.08l-.012.021a1.353 1.353 0 0 0-.052.086l-.008.016c-.016.032-.032.064-.046.098l-.004.011c-.014.035-.027.07-.038.107l-.003.011c-.01.036-.02.072-.028.11l-.005.03c-.005.031-.01.062-.013.094a1.322 1.322 0 0 0-.007.128v1.279h-8.424l-1.434-1.434a3.889 3.889 0 0 0-.376-.327v-13.823c0-1.291-.221-2.573-.655-3.789a1.274 1.274 0 0 0 1.679-.329l3.384-4.512c.094.028.19.05.288.067l1.7.284v7.393a5.117 5.117 0 1 0 5.515 7.824 5.95 5.95 0 0 1-1.302 6.46c-.03.03-.057.061-.084.093Zm-20.76-43.96h.002v5.116a2.56 2.56 0 0 1-1.812-4.366c.48-.48 1.13-.75 1.81-.75Zm23.028 2.558a2.562 2.562 0 0 1-2.559 2.558v-5.117a2.561 2.561 0 0 1 2.559 2.559Zm-5.117 2.558h-8.164l1.633-3.265a1.28 1.28 0 1 0-2.289-1.144l-2.204 4.41h-4.327v-6.202a9.997 9.997 0 0 0 3.97-4.755l.206-.514a17.85 17.85 0 0 0 11.175 6.17v5.3Zm-10.24 2.559h10.24a7.675 7.675 0 0 1-15.35 0h5.11Zm2.564 10.233c.863.001 1.723-.108 2.559-.323v1.798c0 .192.023.383.066.57l-2.625 3.499-2.633-3.511c.05-.197.074-.4.075-.603v-1.753c.836.215 1.695.324 2.558.323Zm-2.558 16.422a2.56 2.56 0 0 1-4.367 1.81 2.56 2.56 0 0 1-.75-1.81v-4.909h3.308l1.809 1.809v3.1Zm12.792.208a2.56 2.56 0 0 1-3.057 2.51 2.56 2.56 0 0 1-.923-4.637 2.56 2.56 0 0 1 3.98 2.127Zm5.976-15.558-1.009 2.388a8.939 8.939 0 0 0-2.215-.672l-1.261-.211h-.001l-6.607-1.102V97a10.237 10.237 0 0 0 5.117-8.857c.873 0 1.732-.224 2.493-.65v.448a7.935 7.935 0 0 0 2.327 5.616 5.363 5.363 0 0 1 1.156 5.89Zm-16.21-36.89a12.795 12.795 0 0 1 12.793 12.793v3.246a5.085 5.085 0 0 0-2.559-.688c-.4 0-.796-.016-1.181-.046A15.349 15.349 0 0 1 38.31 71.03l-.15-.225a1.28 1.28 0 0 0-2.252.234l-1.056 2.64a7.425 7.425 0 0 1-4.39 4.237 5.08 5.08 0 0 0-2.322.682v-3.246a12.807 12.807 0 0 1 12.792-12.793ZM25.815 93.557a7.888 7.888 0 0 0 2.325-5.616v-.486c.777.451 1.66.689 2.559.688A10.237 10.237 0 0 0 35.816 97v2.806l-2.862.358c-.242-.076-.489-.146-.743-.207a11.248 11.248 0 0 0-7.073.632l-.48-1.14a5.38 5.38 0 0 1 1.156-5.892Zm-11.028 16.332h.561v.267a1.014 1.014 0 0 1-1.012 1.013h-.827l.001-.024c.001-.053.005-.107.013-.16l.007-.048c.011-.061.026-.121.046-.179l.007-.019a1.29 1.29 0 0 1 .092-.199 1.273 1.273 0 0 1 1.112-.651Zm9.516 10.234a1.284 1.284 0 0 0 .904-.374l2.559-2.559a1.285 1.285 0 0 0 .374-.904 1.282 1.282 0 0 0-1.279-1.28 1.27 1.27 0 0 0-.905.375l-2.183 2.184h-5.71a3.831 3.831 0 0 1-3.722-2.907l-.233-.931h.228a3.576 3.576 0 0 0 3.57-3.571v-.267h1.28a1.279 1.279 0 0 0 1.213-.874 9.652 9.652 0 0 1 4.19-5.226l.562-.336a8.688 8.688 0 0 1 8.348-.328l.068.035a8.589 8.589 0 0 1 1.668 1.09 8.664 8.664 0 0 1 2.413 3.209 1.278 1.278 0 0 0-.553-.128h-5.117a1.28 1.28 0 0 0-1.28 1.279v6.188a5.107 5.107 0 0 0 7.676 4.428v4.735a3.835 3.835 0 0 0-3.62 2.558h-.218a5.12 5.12 0 0 0-4.432 2.558 5.111 5.111 0 0 0 .004 5.118h-6.5a5.124 5.124 0 0 0-.096-5.302 26.324 26.324 0 0 0 2.005-4.527 1.28 1.28 0 0 0-2.427-.81 23.796 23.796 0 0 1-1.513 3.541 5.085 5.085 0 0 0-1-.402l-.21-.059a3.804 3.804 0 0 0-.21-1.027c.306-.589.59-1.19.847-1.792l1.583-3.694h1.716Zm-11.964 9.939.617-1.365a6.528 6.528 0 0 1 2.744-2.99 1.267 1.267 0 0 1 .972-.115l.211.06a1.283 1.283 0 0 1 .884 1.579 1.278 1.278 0 0 0 .883 1.579l1.23.348a2.561 2.561 0 0 1 1.752 3.153 2.557 2.557 0 0 1-3.142 1.771l-4.925-1.391a1.921 1.921 0 0 1-1.215-1.033 1.913 1.913 0 0 1-.01-1.595v-.001Zm46.503.295a3.842 3.842 0 0 1-3.838 3.838H34.536a2.558 2.558 0 0 1 0-5.117h1.28a1.28 1.28 0 0 0 1.279-1.279 1.27 1.27 0 0 1 .374-.906 1.272 1.272 0 0 1 .905-.374h.22c.338.003.663.137.905.376l1.808 1.808a1.27 1.27 0 0 0 .905.375h10.233a1.28 1.28 0 0 0 1.28-1.279v-2.053a8.531 8.531 0 0 0 1.727-8.181h3.39v12.792Z"/><path fill="#000" d="M16.643 96.47a4.491 4.491 0 0 0-7.531-2.086l-.713.713-.714-.713A4.49 4.49 0 0 0 .154 96.47a5.216 5.216 0 0 0 2.162 5.594l5.373 3.582a1.28 1.28 0 0 0 1.419 0l5.373-3.582a5.218 5.218 0 0 0 2.162-5.594Zm-3.582 3.465-4.663 3.109-4.663-3.109a2.653 2.653 0 0 1-1.1-2.844 1.933 1.933 0 0 1 3.241-.898l1.618 1.618a1.28 1.28 0 0 0 1.809 0l1.618-1.618a1.932 1.932 0 0 1 3.24.898 2.653 2.653 0 0 1-1.1 2.844ZM25.582 111.169a1.28 1.28 0 1 0 0-2.56 1.28 1.28 0 0 0 0 2.56Z"/></svg>