<svg xmlns="http://www.w3.org/2000/svg" width="253" height="138" fill="none"><g fill="#949494" opacity=".05"><path d="M195.034 80.98c-.086-8.986-4.681-17.202-12.291-21.978-7.611-4.776-17.007-5.34-25.135-1.51l-19.588 9.23a16.5 16.5 0 0 0-7.561 7.18 16.493 16.493 0 0 0-1.792 10.276 16.502 16.502 0 0 0 4.691 9.317 16.49 16.49 0 0 0 9.321 4.684l.239.034a32.648 32.648 0 0 1 21.969 13.903 16.536 16.536 0 0 0 4.896 4.737 16.744 16.744 0 0 0 3.373 1.619 16.499 16.499 0 0 0 10.43.173 16.495 16.495 0 0 0 8.476-6.08 16.504 16.504 0 0 0 3.18-9.934l-.208-21.651ZM150.388 52.934c3.654.717 7.38-.252 10.491-2.729 2.962-2.356 5.017-5.825 5.788-9.767.768-3.942.17-7.928-1.685-11.227-1.95-3.465-5.035-5.766-8.686-6.478-7.341-1.438-14.641 4.168-16.275 12.499-1.293 6.635 1.395 13.023 6.252 16.072a12.06 12.06 0 0 0 4.115 1.63ZM177.184 52.89c7.393 4.639 17.709 1.56 22.995-6.862 5.288-8.425 3.574-19.054-3.819-23.694-7.393-4.64-17.708-1.56-22.996 6.866-5.286 8.423-3.572 19.05 3.82 23.69ZM197.985 71.174h.001a12.9 12.9 0 0 0 3.102 2.725c5.392 3.384 13.109 2.757 18.899-2.016 3.333-2.747 5.561-6.465 6.272-10.47.746-4.19-.238-8.19-2.77-11.261-2.532-3.072-6.271-4.8-10.528-4.868-4.066-.065-8.141 1.413-11.473 4.161-7.03 5.796-8.601 15.544-3.503 21.73ZM227.34 87.111l-.001-.003c-2.735-6.966-11.384-10.119-19.284-7.027-7.896 3.097-12.103 11.283-9.378 18.247.994 2.541 2.775 4.575 5.02 5.984 3.914 2.456 9.238 3.013 14.265 1.048 7.896-3.097 12.103-11.283 9.378-18.249Z"/></g><path fill="#F3AF3E" d="M74.672 121.752v13.922H21.516l-1.83-2.743a1.259 1.259 0 0 1-.188-.951 1.263 1.263 0 0 1 .54-.805l2.743-1.829v-5.062l-4.012-10.029-1.05-2.628-1.424-2.847-2.2-4.397a25.646 25.646 0 0 1-2.704-11.462v-8.425L5.145 82.71a4.11 4.11 0 0 1-2.95-3.444l-.316-2.519-.613-4.909h8.859l1.637-3.275a11.393 11.393 0 0 1 11.062-6.263l4.824.372a8.227 8.227 0 0 1 6.214 3.639l5.372 8.059 3.432 5.608a55.525 55.525 0 0 0 13.697 15.168l8.243 6.279a25.565 25.565 0 0 1 10.066 20.326Z"/><path fill="#C38325" d="m24.859 70.994-1.102 7.163a8.798 8.798 0 0 0 8.695 10.136h1.72V71.356a3.313 3.313 0 0 0-3.313-3.314h-2.56a3.48 3.48 0 0 0-3.44 2.952ZM60.631 128.617a1.268 1.268 0 0 1-1.147.729H49.092a3.536 3.536 0 0 0-3.53 3.53v2.798h-2.53v-2.798a6.066 6.066 0 0 1 6.06-6.061h7.695a22.283 22.283 0 0 1-4.896-13.922 1.265 1.265 0 1 1 2.53 0 19.746 19.746 0 0 0 4.568 12.617l1.468 1.761a1.263 1.263 0 0 1 .174 1.346Z"/><path fill="#C0F5F9" d="M68.344 93.909a19.738 19.738 0 0 1-.16 2.53 19.994 19.994 0 0 1-1.905 6.381 20.28 20.28 0 0 1-13.123 10.7 20.254 20.254 0 0 1-22.328-9.028 20.25 20.25 0 0 1-2.984-10.583 20.251 20.251 0 0 1 37.24-11.02 20.158 20.158 0 0 1 3.259 11.02Z"/><path fill="#C38325" d="M6.328 71.84v1.078a3.481 3.481 0 0 1-2.636 3.378l-1.813.452-.613-4.909h5.062ZM17.719 73.105a2.531 2.531 0 1 0 0-5.062 2.531 2.531 0 0 0 0 5.062Z"/><path fill="#428DC5" d="M44.297 120.487h7.594v15.187h-7.594v-15.187Z"/><path fill="#EEB58E" d="M68.304 95.174c-.027.426-.067.848-.12 1.266a19.995 19.995 0 0 1-1.905 6.38 20.28 20.28 0 0 1-13.123 10.699 20.238 20.238 0 0 1-16.437-2.853 20.249 20.249 0 0 1-8.836-15.492h40.421Z"/><path fill="#F55648" d="M40.5 98.971h2.531v2.531H40.5v-2.53Z"/><path fill="#B94137" d="M40.5 105.299h2.531v2.532H40.5v-2.532Z"/><path fill="#F55648" d="M51.89 105.299h2.532v2.532H51.89v-2.532ZM56.953 105.299h2.531v2.532h-2.53v-2.532Z"/><path fill="#B94137" d="M54.422 101.502h2.531v2.532h-2.531v-2.532Z"/><path fill="#C38325" d="m30.005 130.242-1.799 1.797 1.957 2.933c.139.208.212.452.212.702h-2.788l-1.487-2.232a2.538 2.538 0 0 1 .317-3.193l1.427-1.427v-6.502l-9.075-8.065-1.05-2.628-1.424-2.847c.144.054.277.134.392.237l13.262 11.789a1.272 1.272 0 0 1 .426.946v7.594c0 .336-.133.658-.37.896ZM37.969 119.221v16.453h-2.531v-16.07l-2.32-3.477a1.267 1.267 0 0 1 2.108-1.405l2.531 3.797c.138.208.212.452.212.702Z"/><path fill="#BD9070" d="M68.304 95.174c-.027.426-.067.848-.12 1.266h-40.18l-.12-1.266h40.42Z"/><path fill="#744630" d="M54.32 79.987a40.88 40.88 0 0 0-7.412 19.692l-.068.678a2.427 2.427 0 0 0 2.417 2.671 2.43 2.43 0 0 0 1.717-.712l.103-.102a2.43 2.43 0 0 0 .712-1.718v-5.352c0-3.342.41-6.672 1.22-9.914l1.31-5.243ZM65.906 84.268l-.24.962a40.836 40.836 0 0 0-1.222 9.914v5.352c0 .644-.256 1.262-.71 1.718l-.103.102a2.426 2.426 0 0 1-2.757.477 2.426 2.426 0 0 1-1.377-2.436l.066-.677a40.854 40.854 0 0 1 5.522-16.792c.29.448.564.908.82 1.38ZM39.132 79.987a40.88 40.88 0 0 0-7.411 19.692l-.068.678a2.427 2.427 0 0 0 2.416 2.671 2.43 2.43 0 0 0 1.718-.712l.102-.102a2.43 2.43 0 0 0 .712-1.718v-5.352c0-3.342.41-6.672 1.22-9.914l1.31-5.243Z"/><path fill="#428DC5" d="M69.61 93.909c0-11.864-9.653-21.516-21.516-21.516-11.864 0-21.516 9.652-21.516 21.516 0 10.12 7.024 18.629 16.453 20.912v5.666h10.125v-5.666c9.43-2.283 16.453-10.792 16.453-20.912Zm-21.516 18.984a18.984 18.984 0 1 1 18.984-18.984 19.005 19.005 0 0 1-18.984 18.984Z"/><path fill="#3775A4" d="M44.297 120.487h7.594v2.531h-7.594v-2.531Z"/><path fill="#000" d="M17.719 73.105a2.531 2.531 0 1 0 0-5.062 2.531 2.531 0 0 0 0 5.062ZM40.5 98.971h2.531v2.531H40.5v-2.53ZM40.5 105.299h2.531v2.532H40.5v-2.532ZM51.89 105.299h2.532v2.532H51.89v-2.532ZM56.953 105.299h2.531v2.532h-2.53v-2.532ZM54.422 101.502h2.531v2.532h-2.531v-2.532Z"/><path fill="#000" d="M.939 79.424a5.368 5.368 0 0 0 3.858 4.504l5.328 1.523v7.47a27.029 27.029 0 0 0 2.84 12.027l3.598 7.199 4.953 12.38v4.142l-2.18 1.453a2.544 2.544 0 0 0-1.078 1.61 2.533 2.533 0 0 0 .376 1.9l1.829 2.744a1.257 1.257 0 0 0 1.053.564h53.156a1.263 1.263 0 0 0 1.266-1.266v-13.922a26.852 26.852 0 0 0-8.13-19.231 21.354 21.354 0 0 0 1.738-6.952 1.26 1.26 0 0 0 .039-.643 21.385 21.385 0 0 0-2.336-10.811l.955-3.821a1.266 1.266 0 0 0-2.258-1.043c-.322.452-.635.91-.938 1.373a21.497 21.497 0 0 0-24.625-6.801l-.07-.113a.828.828 0 0 0-.026-.041l-5.371-8.059a9.433 9.433 0 0 0-7.17-4.199l-4.824-.371a12.608 12.608 0 0 0-12.292 6.959l-1.287 2.575H1.266A1.265 1.265 0 0 0 .01 71.997l.929 7.427Zm26.905 49.398-1.427 1.427a2.538 2.538 0 0 0-.317 3.194l.645.966h-4.552l-1.453-2.181 2.744-1.829a1.26 1.26 0 0 0 .563-1.053v-5.062c0-.161-.03-.321-.09-.47l-3.072-7.679 6.959 6.186v6.501Zm22.781 5.587h-5.062v-12.657h5.062v12.657Zm1.266-15.188h-7.594v-4.132c2.512.447 5.082.447 7.594 0v4.132Zm14.388-30.764c.531 1.769.8 3.605.8 5.452h-1.35c.058-1.828.242-3.65.55-5.452Zm-.57 12.039V96.44h1.2a18.825 18.825 0 0 1-1.25 4.667c.034-.202.05-.406.051-.611Zm.882 4.389a24.328 24.328 0 0 1 6.815 16.867v12.657h-20.25v-5.063h6.328a1.266 1.266 0 0 0 .973-2.076l-1.467-1.76a19.565 19.565 0 0 1-4.502-11.056 21.617 21.617 0 0 0 12.104-9.569Zm-13.435 21.93v-5.063c.18 0 .357-.038.52-.112a22.2 22.2 0 0 0 3.111 5.175h-3.63Zm11.472-23.706c.058-.058.113-.118.166-.179a18.977 18.977 0 0 1-33.141.462 3.697 3.697 0 0 0 5.03-.181l.101-.102a3.685 3.685 0 0 0 1.083-2.613V96.44h8.213a42.688 42.688 0 0 0-.431 3.113l-.068.678a3.692 3.692 0 0 0 4.307 4.008 3.693 3.693 0 0 0 1.982-1.028l.102-.102a3.662 3.662 0 0 0 1.082-2.613V96.44h5.682a42.688 42.688 0 0 0-.43 3.113l-.069.678a3.692 3.692 0 0 0 4.307 4.008 3.693 3.693 0 0 0 1.982-1.028l.102-.102Zm-31.716-2.626.068-.678a39.643 39.643 0 0 1 2.898-11.402 42.18 42.18 0 0 0-.543 6.742v5.352a1.152 1.152 0 0 1-.341.822l-.102.103a1.167 1.167 0 0 1-1.32.228 1.165 1.165 0 0 1-.66-1.166v-.001Zm15.188 0 .067-.678a39.643 39.643 0 0 1 2.899-11.402 42.18 42.18 0 0 0-.543 6.742v5.352a1.152 1.152 0 0 1-.341.822l-.102.103a1.167 1.167 0 0 1-1.321.228 1.165 1.165 0 0 1-.66-1.166v-.001Zm15.08-5.34v5.353a1.15 1.15 0 0 1-.342.822l-.102.103a1.168 1.168 0 0 1-1.32.228 1.164 1.164 0 0 1-.66-1.167l.068-.677a39.645 39.645 0 0 1 2.898-11.402 42.163 42.163 0 0 0-.543 6.741Zm-25.125-20.26c-.91.483-1.785 1.03-2.617 1.638v-5.165c0-.144-.01-.289-.023-.433l2.64 3.96Zm10.039.041a18.973 18.973 0 0 1 15.493 8.026 42.25 42.25 0 0 0-4.324 10.959h-6.19c.089-2.825.479-5.631 1.164-8.372l1.31-5.243a1.265 1.265 0 0 0-2.257-1.043 42.208 42.208 0 0 0-6.683 14.658h-8.721c.088-2.825.478-5.631 1.163-8.372l1.31-5.243a1.265 1.265 0 0 0-2.257-1.043A42.208 42.208 0 0 0 31.42 93.91h-2.31a19.006 19.006 0 0 1 18.985-18.985Zm-17.716 25.808a18.834 18.834 0 0 1-1.1-4.292h1.614a42.634 42.634 0 0 0-.43 3.113l-.069.678a3.744 3.744 0 0 0-.015.501Zm-2.176-15.018a7.506 7.506 0 0 1-3.195-7.364l1.102-7.163a2.203 2.203 0 0 1 2.19-1.879h2.56a2.037 2.037 0 0 1 1.831 1.132c.142.285.216.598.216.916v7.327a21.592 21.592 0 0 0-4.704 7.03ZM7.586 73.104h2.54a1.266 1.266 0 0 0 1.131-.699l1.638-3.275a10.087 10.087 0 0 1 9.832-5.567l4.824.372a6.917 6.917 0 0 1 5.258 3.079l.195.292a4.582 4.582 0 0 0-2.145-.53h-2.56a4.721 4.721 0 0 0-4.691 4.025l-1.102 7.164a10.03 10.03 0 0 0 4.85 10.206 21.467 21.467 0 0 0-.753 6.755 1.26 1.26 0 0 0 .039.643 21.569 21.569 0 0 0 15.124 18.905v6.013a1.268 1.268 0 0 0 1.266 1.265v12.657h-5.063v-15.188c0-.25-.074-.494-.213-.702l-2.531-3.797a1.262 1.262 0 0 0-1.3-.545 1.254 1.254 0 0 0-.81.539 1.264 1.264 0 0 0 .004 1.41l2.319 3.478v14.805h-5.651l-1.58-2.37 1.798-1.798c.237-.237.37-.559.37-.895v-7.594a1.266 1.266 0 0 0-.425-.946l-11.208-9.963-3.514-7.026a24.492 24.492 0 0 1-2.572-10.896v-8.425a1.265 1.265 0 0 0-.917-1.217l-6.247-1.785A2.84 2.84 0 0 1 3.45 79.11l-.175-1.405.725-.181a4.737 4.737 0 0 0 3.586-4.42Zm-2.531 0a2.212 2.212 0 0 1-1.67 1.964l-.426.107-.26-2.07h2.356Z"/></svg>