<svg xmlns="http://www.w3.org/2000/svg" width="253" height="138" fill="none"><g fill="#78C0DE" opacity=".05"><path d="M195.034 80.98c-.086-8.986-4.681-17.202-12.291-21.978-7.611-4.776-17.007-5.34-25.135-1.51l-19.588 9.23a16.5 16.5 0 0 0-7.561 7.18 16.492 16.492 0 0 0-1.792 10.276 16.501 16.501 0 0 0 4.691 9.317 16.49 16.49 0 0 0 9.321 4.684l.239.034a32.648 32.648 0 0 1 21.969 13.903 16.536 16.536 0 0 0 4.896 4.737 16.744 16.744 0 0 0 3.373 1.619 16.499 16.499 0 0 0 10.43.173 16.495 16.495 0 0 0 8.476-6.08 16.504 16.504 0 0 0 3.18-9.934l-.208-21.651ZM150.388 52.934c3.654.717 7.38-.252 10.491-2.729 2.962-2.356 5.017-5.825 5.788-9.767.768-3.942.17-7.928-1.685-11.227-1.95-3.465-5.035-5.766-8.686-6.478-7.341-1.438-14.641 4.168-16.275 12.499-1.293 6.635 1.395 13.023 6.252 16.072a12.058 12.058 0 0 0 4.115 1.63ZM177.184 52.89c7.393 4.639 17.709 1.56 22.995-6.862 5.288-8.425 3.574-19.054-3.819-23.694-7.393-4.64-17.708-1.56-22.996 6.866-5.286 8.423-3.572 19.05 3.82 23.69ZM197.985 71.174h.001a12.9 12.9 0 0 0 3.102 2.725c5.392 3.384 13.109 2.757 18.899-2.016 3.333-2.747 5.561-6.465 6.272-10.47.746-4.19-.238-8.19-2.77-11.261-2.532-3.072-6.271-4.8-10.528-4.868-4.066-.065-8.141 1.413-11.473 4.161-7.03 5.796-8.601 15.544-3.503 21.73ZM227.34 87.111l-.001-.003c-2.735-6.966-11.384-10.119-19.284-7.027-7.896 3.097-12.103 11.283-9.378 18.247.994 2.541 2.775 4.575 5.02 5.984 3.914 2.456 9.238 3.013 14.265 1.048 7.896-3.097 12.103-11.283 9.378-18.249Z"/></g><path fill="#3775A4" d="M75.718 61.283v44.354l-1.284 2.02 1.284 2.723v9.959l-1.284 1.832 1.284 1.479v12.067h-30.8l-2.669-.963-2.465.963h-38.5V61.283h74.434Z"/><path fill="#2A597C" d="m75.716 105.637-.802 2.206.802 2.537v9.959l-.962 1.63.962 1.682v6.932l-4.866 2.888a18.38 18.38 0 0 1-8.806 2.246H44.917l-2.744-.802-2.39.802h-2.566l-2.825-4.239a13.735 13.735 0 0 1-2.309-7.621v-3.219c0-1.899-.442-3.772-1.291-5.471l-1.276-2.55-2.566-8.984L23.1 98.5l-6.417 2.567h-4.492a1.925 1.925 0 0 1 0-3.85h1.925l7.7-3.85V90.8h-15.4v-5.526a2.567 2.567 0 0 1 2.145-2.532l5.556-.925 2.566-2.567 7.7-2.567-.317-.954a8.323 8.323 0 0 1 .168-5.73l1.432-3.582L35.933 83.1l3.948 4.936A28.37 28.37 0 0 0 56.09 98.052l3.943.846a19 19 0 0 0 8.253-.066l7.43-1.715v8.52Z"/><path fill="#DBDBDB" d="m38.5 104.917-5.25-5.25 2.59-2.543 5.282 5.282-2.512 2.566-.11-.055Z"/><path fill="#EBEBEB" d="m38.5 104.917 6.417 5.133 2.566-3.85-6.416-3.85-2.567 2.567Z"/><path fill="#EBEBEB" d="M75.716 105.637v4.743c-7.642 1.386-16.485 1.577-24.073.567l-6.727-.897 2.567-3.85.932.143c8.661 1.333 18.644 1.089 27.301-.706Z"/><path fill="#DBDBDB" d="M45.29 101.148a33.573 33.573 0 0 0-5.3 13.873l-.207 1.446h3.85l.337-.843a40.505 40.505 0 0 1 5.98-10.262l.341-.426a3.067 3.067 0 0 0 .515-2.885l-.058-.172a3.065 3.065 0 0 0-5.458-.731ZM75.717 120.339v3.311a14.079 14.079 0 0 1-10.355 5.939 37.024 37.024 0 0 1-21.066-4.51 1.28 1.28 0 0 1-.481-1.732 1.282 1.282 0 0 1 1.723-.513 34.777 34.777 0 0 0 5.768 2.536 11.614 11.614 0 0 0 .857-5.681l-.374-3.734a13.94 13.94 0 0 1 2.265-9.092l2.628-3.942a1.293 1.293 0 0 1 .816-.547 1.28 1.28 0 0 1 .964.191 1.292 1.292 0 0 1 .547.817 1.282 1.282 0 0 1-.19.964l-2.63 3.941a11.368 11.368 0 0 0-1.846 7.413l.374 3.734a14.155 14.155 0 0 1-.937 6.662c1.395.353 2.81.619 4.238.795a11.674 11.674 0 0 0 .89-7.017l-.681-3.69a13.933 13.933 0 0 1 1.501-9.249l2.292-4.147a1.281 1.281 0 0 1 2.246 1.242l-2.29 4.146a11.367 11.367 0 0 0-1.226 7.542l.683 3.689a14.27 14.27 0 0 1-.723 7.71c1.48.065 2.962.036 4.438-.087.22-.018.439-.043.657-.074.807-2.347.846-4.891.11-7.262l-1.118-3.583a13.928 13.928 0 0 1 .388-9.362l1.781-4.391a1.287 1.287 0 0 1 1.672-.707 1.286 1.286 0 0 1 .707 1.673l-1.78 4.389a11.369 11.369 0 0 0-.318 7.634l1.118 3.582c.727 2.341.839 4.829.324 7.225a11.343 11.343 0 0 0 3.598-2.412 11.107 11.107 0 0 0-.091-6.34l-1.085-3.468a13.463 13.463 0 0 1 .393-9.099l1.216-2.971a1.289 1.289 0 0 1 .692-.698 1.275 1.275 0 0 1 1.68.688 1.281 1.281 0 0 1 .004.982l-1.216 2.971a10.883 10.883 0 0 0-.32 7.36l1.085 3.47c.375 1.199.583 2.443.62 3.699.15-.026.302-.025.452.003Z"/><path fill="#2F638B" d="M34.65 61.283h2.567V67.7H34.65v-6.417ZM16.684 61.283h2.566v7.7h-2.566v-7.7ZM42.35 61.283h2.567v3.85H42.35v-3.85ZM50.05 61.283h2.567V67.7H50.05v-6.417ZM57.75 61.283h2.567v3.85H57.75v-3.85ZM66.733 61.283H69.3V67.7h-2.567v-6.417ZM28.233 131.867H30.8v3.728h-2.567v-3.728ZM20.534 129.3H23.1v6.295h-2.566V129.3ZM12.834 131.867H15.4v3.728h-2.566v-3.728ZM1.405 124.167h3.729v2.566h-3.73v-2.566ZM1.405 116.467H7.7v2.566H1.405v-2.566ZM1.405 108.767h3.729v2.566h-3.73v-2.566ZM1.405 68.983h3.729v2.567h-3.73v-2.567ZM8.983 61.283h2.567v3.85H8.983v-3.85ZM51.334 75.4H53.9v2.567h-2.566V75.4ZM56.467 75.4h10.267v2.567H56.467V75.4ZM51.334 80.533H61.6V83.1H51.333v-2.567ZM64.167 80.533h2.567V83.1h-2.567v-2.567Z"/><path fill="#EBEBEB" d="m39.783 116.467-2.566 2.566 2.566 3.85v12.834h5.134v-12.834l1.283-3.85-2.567-2.566h-3.85ZM35.933 97.217l-2.566 2.566-5.134-3.85-2.567-5.133 3.968-3.032 1.689 2.533 4.61 6.916Z"/><path fill="#DADADA" d="M31.323 90.301a4.01 4.01 0 0 1-3.334 1.782h-1.68l-.643-1.283 3.968-3.032 1.689 2.533Z"/><path fill="#EBEBEB" d="M27.91 81.817h-5.25a5.13 5.13 0 0 0-3.63 1.503l-2.347 2.347-5.677.81A3.85 3.85 0 0 0 7.7 90.29v.511H27.67a4.01 4.01 0 0 0 3.89-3.038l.241-.962a4.01 4.01 0 0 0-3.89-4.983Z"/><path fill="#DBDBDB" d="M12.192 97.217h1.925l7.7-3.85v-.642a3.208 3.208 0 1 1 6.416 0v3.69l-11.55 4.652h-4.491a1.925 1.925 0 0 1 0-3.85Z"/><path fill="#000" d="M75.717 60H1.283A1.283 1.283 0 0 0 0 61.283v74.434A1.283 1.283 0 0 0 1.283 137h74.434A1.282 1.282 0 0 0 77 135.717V61.283A1.283 1.283 0 0 0 75.717 60Zm-37.143 55.862-2.265 2.264a1.284 1.284 0 0 0-.16 1.619l2.351 3.527v11.161h-.597l-2.444-3.667a12.417 12.417 0 0 1-2.092-6.91v-3.219a13.58 13.58 0 0 0-1.427-6.043l-1.222-2.444-2.535-8.869a1.283 1.283 0 0 0-.207-.417l-3.044-4.059 3.133-1.392 4.458 3.343 5.07 5.069.002.002c.009.01.02.018.029.027.023.022.046.043.071.063l.003.003 2.698 2.157a34.827 34.827 0 0 0-1.676 6.762l-.146 1.023ZM29.47 92.083h.713l4.03 5.038-.967.968-3.73-2.797v-2.567c0-.215-.015-.43-.046-.642Zm1.084-5.595-.24.962a2.723 2.723 0 0 1-2.19 2.028 4.481 4.481 0 0 0-6.239.038H9.104a2.583 2.583 0 0 1 2.084-1.768l5.677-.811c.275-.04.53-.167.726-.363l2.347-2.347a3.875 3.875 0 0 1 2.72-1.127h5.251a2.724 2.724 0 0 1 2.645 3.388Zm-8.163 8.026a1.283 1.283 0 0 0 .709-1.147v-.642a1.925 1.925 0 0 1 3.85 0v2.374l-10.54 4.684h-4.218a.642.642 0 0 1 0-1.283h1.925c.199 0 .395-.046.574-.136l7.7-3.85Zm12.79 5.27.752-.752 3.319 3.318-.752.752-3.318-3.319Zm8.519 22.693a1.286 1.286 0 0 0-.067.406v11.55h-2.566v-11.55c0-.253-.075-.501-.216-.712l-1.983-2.974 1.447-1.447h2.787l1.63 1.63-1.032 3.097Zm-.92-7.329-.015.035h-1.502a32.484 32.484 0 0 1 5.095-13.323 1.789 1.789 0 0 1 1.72-.778 1.787 1.787 0 0 1 1.454 1.203l.057.172a1.777 1.777 0 0 1-.3 1.677l-.34.426a41.766 41.766 0 0 0-6.17 10.588ZM40.42 104.81l.844-.844.692.415c-.196.399-.385.8-.566 1.205l-.97-.776Zm9.275 3.013c1.184.158 2.378.286 3.57.387-.26.506-.49 1.028-.685 1.562-.254-.031-.51-.063-.768-.097l-3.099-.414c.317-.486.645-.966.983-1.438Zm-4.534 8.277a39.266 39.266 0 0 1 2.11-4.442l4.203.561.44.057a13.877 13.877 0 0 0-.127 3.68l.374 3.734c.194 1.935-.1 3.888-.856 5.679a34.78 34.78 0 0 1-5.106-2.179v-.098l1.217-3.652a1.285 1.285 0 0 0-.31-1.314l-1.968-1.968.023-.058Zm29.271 18.333h-2.69l2.69-1.596v1.596Zm0-4.581-4.219 2.503a17.143 17.143 0 0 1-8.17 2.078H46.2v-8.372a37.006 37.006 0 0 0 19.162 3.528 14.052 14.052 0 0 0 9.071-4.369v4.632Zm-19.717-10.418-.373-3.734c-.104-1.05-.06-2.11.13-3.148 1.185.109 2.372.192 3.553.244a13.862 13.862 0 0 0 .2 3.387l.682 3.691a11.67 11.67 0 0 1-.89 7.016 34.436 34.436 0 0 1-4.238-.794 14.172 14.172 0 0 0 .937-6.662Zm.517-9.39c.25-.574.548-1.127.89-1.652.954.043 1.914.068 2.88.075a13.839 13.839 0 0 0-.58 1.776 73.16 73.16 0 0 1-3.19-.198v-.001Zm6.01 2.824c.983 0 1.97-.021 2.954-.06.065 1.121.267 2.23.6 3.302l1.118 3.583a11.672 11.672 0 0 1-.11 7.262c-.218.031-.437.057-.656.075-1.477.123-2.96.152-4.44.086a14.24 14.24 0 0 0 .723-7.708l-.682-3.691a11.315 11.315 0 0 1-.159-2.853c.218.002.434.004.652.004Zm-.17-2.568c.2-.645.457-1.27.768-1.868.937-.03 1.88-.078 2.826-.145a13.89 13.89 0 0 0-.389 1.947 69.972 69.972 0 0 1-3.205.066Zm9.632 1.962c.1.565.235 1.124.406 1.671l1.085 3.469a11.12 11.12 0 0 1 .092 6.339 11.333 11.333 0 0 1-3.6 2.414 14.244 14.244 0 0 0-.323-7.226l-1.117-3.583a11.29 11.29 0 0 1-.49-2.684 72.79 72.79 0 0 0 3.947-.4Zm-3.81-2.184c.118-.694.3-1.376.545-2.037a75.39 75.39 0 0 0 3.264-.425 13.497 13.497 0 0 0-.196 2.081c-1.201.157-2.408.286-3.613.382v-.001Zm7.54 5.88-.873-2.791c-.13-.418-.235-.845-.314-1.276.394-.064.789-.132 1.186-.204v4.271Zm0-6.879c-.451.084-.9.163-1.346.238.04-.733.155-1.459.341-2.169.336-.064.671-.13 1.004-.199v2.13Zm0-7.899c-.014-.005-.026-.012-.04-.018a1.285 1.285 0 0 0-1.674.701l-1.216 2.971c-.008.018-.014.037-.021.055-.978.167-1.962.313-2.952.439l.813-2.005a1.283 1.283 0 1 0-2.378-.964l-1.331 3.28c-.783.067-1.566.122-2.35.164l.98-1.773a1.283 1.283 0 0 0-2.245-1.241l-1.719 3.109a74.9 74.9 0 0 1-2.508-.015l1.024-1.537a1.286 1.286 0 0 0-.36-1.774 1.283 1.283 0 0 0-1.775.35l-1.885 2.826a72.157 72.157 0 0 1-3.298-.293 4.332 4.332 0 0 0 .524-3.809l-.057-.173a4.351 4.351 0 0 0-5.919-2.586 4.347 4.347 0 0 0-1.826 1.55 33.665 33.665 0 0 0-1.05 1.68l-1.31-.786-4.971-4.972-5.048-6.31a5.29 5.29 0 0 0 .96-1.976l.241-.96a5.293 5.293 0 0 0-5.135-6.58h-5.25a6.372 6.372 0 0 0-4.536 1.88l-2.045 2.044-5.253.75a5.124 5.124 0 0 0-3.125 1.7v-1.633a1.28 1.28 0 0 1 1.072-1.266l5.556-.925c.264-.044.507-.17.696-.359l2.353-2.352 7.412-2.47a1.283 1.283 0 0 0 .812-1.624l-.318-.955a7.059 7.059 0 0 1 .142-4.847l.486-1.214 8.93 14.51c.027.046.057.089.09.13l3.949 4.936a29.73 29.73 0 0 0 16.94 10.47l3.943.845c2.907.618 5.914.595 8.812-.07l5.858-1.352.001 2.449Zm0-5.083-6.436 1.485c-2.53.58-5.158.6-7.697.06l-3.943-.845a27.158 27.158 0 0 1-15.474-9.563l-3.9-4.874L26.76 65.744a1.284 1.284 0 0 0-2.285.196l-1.433 3.583a9.627 9.627 0 0 0-.278 6.348l-6.486 2.161c-.19.064-.361.17-.502.31L13.5 80.618l-5.15.859a3.838 3.838 0 0 0-3.217 3.797V90.8a1.283 1.283 0 0 0 1.284 1.283h14.116v.49l-6.72 3.36h-1.621a3.209 3.209 0 0 0 0 6.417h4.491c.043 0 .086-.002.129-.007l.04-.006c.03-.004.058-.007.087-.013l.048-.012c.025-.006.05-.012.076-.02l.05-.018a.512.512 0 0 0 .047-.016l5.503-2.201 3.118 4.157 2.503 8.755c.021.077.05.151.086.222l1.275 2.55a11.004 11.004 0 0 1 1.155 4.896v3.22a14.975 14.975 0 0 0 2.523 8.333l1.496 2.243H30.8v-2.566h-2.567v2.566H23.1V129.3h-2.567v5.133H15.4v-2.566h-2.567v2.566H2.567v-7.7h2.566v-2.566H2.567v-5.134H7.7v-2.566H2.567v-5.134h2.566v-2.566H2.567V71.55h2.566v-2.567H2.567v-6.416h6.416v2.566h2.567v-2.566h5.133v6.416h2.567v-6.416h15.4V67.7h2.567v-5.133h5.133v2.566h2.567v-2.566h5.133V67.7h2.567v-5.133h5.133v2.566h2.567v-2.566h6.416V67.7H69.3v-5.133h5.133l.001 33.53Z"/><path fill="#000" d="M51.334 75.4H53.9v2.567h-2.566V75.4ZM56.467 75.4h10.267v2.567H56.467V75.4ZM51.334 80.533H61.6V83.1H51.333v-2.567ZM64.166 80.533h2.567V83.1h-2.567v-2.567Z"/></svg>